<?xml version="1.0" encoding="UTF-8" standalone="no"?>
<!-- Created with Inkscape (http://www.inkscape.org/) -->

<svg
   width="170.84352mm"
   height="32.938168mm"
   viewBox="0 0 170.84352 32.938168"
   version="1.1"
   id="svg8394"
   inkscape:version="1.1.2 (0a00cf5339, 2022-02-04)"
   sodipodi:docname="Logo of AlmaLinux.svg.svg"
   xmlns:inkscape="http://www.inkscape.org/namespaces/inkscape"
   xmlns:sodipodi="http://sodipodi.sourceforge.net/DTD/sodipodi-0.dtd"
   xmlns="http://www.w3.org/2000/svg"
   xmlns:svg="http://www.w3.org/2000/svg">
  <sodipodi:namedview
     id="namedview8396"
     pagecolor="#ffffff"
     bordercolor="#666666"
     borderopacity="1.0"
     inkscape:pageshadow="2"
     inkscape:pageopacity="0.0"
     inkscape:pagecheckerboard="0"
     inkscape:document-units="mm"
     showgrid="false"
     fit-margin-top="0"
     fit-margin-left="0"
     fit-margin-right="0"
     fit-margin-bottom="0"
     inkscape:zoom="0.64052329"
     inkscape:cx="313.02531"
     inkscape:cy="-16.392847"
     inkscape:window-width="1850"
     inkscape:window-height="1136"
     inkscape:window-x="70"
     inkscape:window-y="27"
     inkscape:window-maximized="1"
     inkscape:current-layer="layer1" />
  <defs
     id="defs8391" />
  <g
     inkscape:label="Layer 1"
     inkscape:groupmode="layer"
     id="layer1"
     transform="translate(-22.235595,-152.81639)">
    <path
       id="path4"
       d="m 75.015953,179.24758 -1.158023,-3.47407 h -7.720148 l -1.158023,3.47407 h -4.135794 l 6.727558,-19.30038 h 4.742378 l 6.782703,19.30038 z m -7.665005,-7.05843 h 5.293817 l -2.646909,-7.88557 z"
       class="st0"
       style="fill:#00245e;fill-opacity:1;stroke-width:0.551439" />
    <path
       id="path6"
       d="m 80.86121,179.24758 v -20.12753 h 3.584354 v 20.12753 z"
       class="st0"
       style="fill:#00245e;fill-opacity:1;stroke-width:0.551439" />
    <path
       id="path8"
       d="m 102.91878,165.0756 c 1.59917,0 2.81234,0.49628 3.74978,1.54402 0.93745,1.04774 1.43375,2.42634 1.43375,4.13578 v 8.49218 h -3.52921 v -8.27159 c 0,-0.82716 -0.22058,-1.48889 -0.60659,-1.93003 -0.386,-0.44116 -0.99259,-0.66173 -1.70946,-0.66173 -0.82716,0 -1.43374,0.27572 -1.87489,0.82715 -0.441148,0.55143 -0.661728,1.32346 -0.661728,2.31605 v 7.72015 h -3.52921 v -8.27159 c 0,-0.82716 -0.22058,-1.48889 -0.60659,-1.93003 -0.386,-0.44116 -0.99259,-0.66173 -1.70946,-0.66173 -0.77201,0 -1.43374,0.27572 -1.930034,0.82715 -0.44115,0.55143 -0.661728,1.32346 -0.661728,2.31605 v 7.72015 H 87.7542 v -13.78599 h 3.52921 v 1.43375 c 0.827159,-1.21316 2.095472,-1.87489 3.860072,-1.87489 1.70947,0 2.92263,0.66173 3.74979,1.98518 0.82716,-1.26831 2.205758,-1.93003 4.025508,-1.93003 z"
       class="st0"
       style="fill:#00245e;fill-opacity:1;stroke-width:0.551439" />
    <path
       id="path10"
       d="m 121.61257,165.46159 h 3.52921 v 13.78599 h -3.52921 v -1.65431 c -1.04774,1.32345 -2.59177,2.04032 -4.5218,2.04032 -1.81975,0 -3.41893,-0.71687 -4.74238,-2.09547 -1.32345,-1.43375 -1.98518,-3.14322 -1.98518,-5.18352 0,-2.04033 0.66173,-3.7498 1.98518,-5.18355 1.32345,-1.43373 2.92263,-2.1506 4.74238,-2.1506 1.93003,0 3.41892,0.66173 4.5218,2.04033 z m -6.56213,9.70534 c 0.71687,0.71687 1.59918,1.10288 2.70205,1.10288 1.10288,0 2.04033,-0.33086 2.7572,-1.10288 0.71687,-0.71688 1.10288,-1.65432 1.10288,-2.81233 0,-1.15804 -0.38601,-2.09548 -1.10288,-2.75721 -0.71687,-0.71687 -1.65432,-1.10288 -2.7572,-1.10288 -1.10287,0 -1.98518,0.38601 -2.70205,1.10288 -0.71687,0.71688 -1.04773,1.65432 -1.04773,2.75721 0,1.10286 0.33086,2.09545 1.04773,2.81233 z"
       class="st0"
       style="fill:#00245e;fill-opacity:1;stroke-width:0.551439" />
    <path
       id="path12"
       d="m 132.36564,175.60808 h 7.33414 v 3.6395 H 128.5607 V 159.9472 h 3.80494 z"
       class="st0"
       style="fill:#00245e;fill-opacity:1;stroke-width:0.551439" />
    <path
       id="path14"
       d="m 143.50471,163.80727 c -0.60659,0 -1.10288,-0.22057 -1.54403,-0.60658 -0.44115,-0.44114 -0.66173,-0.93744 -0.66173,-1.54402 0,-0.60658 0.22058,-1.10289 0.66173,-1.54403 0.44115,-0.44115 0.93744,-0.66172 1.54403,-0.66172 0.60658,0 1.10288,0.22057 1.54403,0.66172 0.44115,0.44114 0.66172,0.93745 0.66172,1.54403 0,0.60658 -0.22057,1.10288 -0.66172,1.54402 -0.44115,0.38601 -0.93745,0.60658 -1.54403,0.60658 z m -1.76461,15.44031 v -13.78599 h 3.58436 v 13.78599 z"
       class="st0"
       style="fill:#00245e;fill-opacity:1;stroke-width:0.551439" />
    <path
       id="path16"
       d="m 156.18781,165.0756 c 1.48889,0 2.7572,0.49628 3.74979,1.54402 0.99259,0.99259 1.48888,2.42634 1.48888,4.19093 v 8.43703 h -3.52921 v -8.05102 c 0,-0.93744 -0.27572,-1.59917 -0.77201,-2.09547 -0.4963,-0.49629 -1.15803,-0.772 -1.98518,-0.772 -0.93745,0 -1.65432,0.27571 -2.20576,0.88229 -0.55144,0.60658 -0.82716,1.43375 -0.82716,2.59176 v 7.44444 h -3.52921 v -13.78599 h 3.52921 v 1.54404 c 0.8823,-1.26831 2.20576,-1.93003 4.08065,-1.93003 z"
       class="st0"
       style="fill:#00245e;fill-opacity:1;stroke-width:0.551439" />
    <path
       id="path18"
       d="m 173.55816,165.46159 h 3.58435 v 13.78599 h -3.58435 v -1.54404 c -0.88232,1.26833 -2.20577,1.93005 -4.08066,1.93005 -1.48889,0 -2.7572,-0.4963 -3.74979,-1.54404 -0.99259,-0.99259 -1.43374,-2.42632 -1.43374,-4.19093 v -8.43703 h 3.58435 v 7.99587 c 0,0.93744 0.22058,1.65432 0.71688,2.15062 0.49629,0.49629 1.15802,0.71688 1.98518,0.71688 0.93745,0 1.65432,-0.27574 2.20576,-0.82717 0.55143,-0.55143 0.82714,-1.43375 0.82714,-2.59176 v -7.44444 z"
       class="st0"
       style="fill:#00245e;fill-opacity:1;stroke-width:0.551439" />
    <path
       id="path20"
       d="m 193.07911,179.24758 h -4.13581 l -2.97777,-4.19095 -3.03292,4.19095 h -4.08064 l 5.01808,-7.05843 -4.85265,-6.72756 h 4.08065 l 2.81233,3.86009 2.75721,-3.86009 h 4.08065 l -4.85268,6.72756 z"
       class="st0"
       style="fill:#00245e;fill-opacity:1;stroke-width:0.551439" />
    <path
       id="path22"
       d="m 53.178958,171.41713 c 1.433743,-0.11025 2.591765,0.82717 2.702054,2.26092 0.110294,1.48888 -0.937448,2.70204 -2.371191,2.81233 -1.378597,0.11025 -2.591763,-0.93744 -2.702051,-2.31604 -0.110295,-1.48888 0.882302,-2.59177 2.371188,-2.75721 z"
       class="st1"
       style="fill:#86da2f;stroke-width:0.551439" />
    <path
       id="path24"
       d="m 35.753478,183.1628 c 0,-1.43375 1.102879,-2.53661 2.426333,-2.53661 1.323454,0 2.591763,1.21315 2.591763,2.59176 0,1.32345 -1.102877,2.48146 -2.371188,2.53661 -1.599175,0 -2.646908,-0.99259 -2.646908,-2.59176 z"
       class="st2"
       style="fill:#24c2ff;stroke-width:0.551439" />
    <path
       id="path26"
       d="m 39.668697,167.06078 c -0.220577,0.11025 -0.330863,-0.0552 -0.386009,-0.22059 -2.040324,-3.80492 -1.433741,-8.60245 2.150613,-11.46993 0.937448,-0.77202 2.702054,-0.93744 3.474068,-0.16548 0.330863,0.27573 0.386009,0.6066 0.441152,0.99259 0.110295,0.82717 0.27572,1.65431 0.827159,2.31604 0.606584,0.71688 1.378597,0.99259 2.260901,0.93747 0.772014,0 1.54403,-0.11026 2.040325,0.772 0.27572,0.4963 0.165421,2.42634 -0.27572,2.81235 -0.220575,0.16548 -0.386007,0.0552 -0.551439,0 -1.268311,-0.49631 -2.591765,-0.49631 -3.915219,-0.27572 -0.44115,0.0552 -0.661727,-0.0552 -0.661727,-0.55145 -0.05515,-0.82715 -0.220576,-1.59917 -0.661728,-2.31605 -0.827159,-1.48887 -2.371188,-1.54402 -3.363778,-0.16548 -0.827159,1.10286 -1.047734,2.42632 -1.268311,3.74977 -0.220575,1.15804 -0.165422,2.37119 -0.110295,3.58438 0,0 -0.05515,0 0,0 z"
       class="st3"
       style="fill:#ffcb12;stroke-width:0.551439" />
    <path
       id="path28"
       d="m 41.047295,167.88793 c -0.110295,-0.16549 -0.05515,-0.33087 0.110294,-0.44116 3.143204,-2.86748 7.830437,-3.41891 11.469936,-0.60658 0.937448,0.77202 1.54403,2.37119 1.047734,3.30864 -0.220575,0.38601 -0.496295,0.55145 -0.827159,0.66172 -0.772013,0.33087 -1.488886,0.66173 -1.985181,1.3786 -0.496295,0.71688 -0.606582,1.54403 -0.386007,2.42634 0.165422,0.71688 0.441152,1.48888 -0.27572,2.15061 -0.386007,0.38601 -2.2609,0.71687 -2.757195,0.38601 -0.220577,-0.16549 -0.165421,-0.33087 -0.110295,-0.55143 0.165422,-1.37861 -0.165421,-2.64691 -0.661727,-3.86009 -0.165421,-0.44114 -0.110295,-0.66173 0.330864,-0.772 0.772015,-0.22059 1.488886,-0.60658 2.040324,-1.15804 1.213168,-1.15801 0.937448,-2.64691 -0.661727,-3.30863 -1.268309,-0.55144 -2.591763,-0.44114 -3.860074,-0.33087 -1.213166,0.0552 -2.371188,0.38601 -3.474067,0.71688 z"
       class="st1"
       style="fill:#86da2f;stroke-width:0.551439" />
    <path
       id="path30"
       d="m 40.330424,169.32168 c 0.165422,-0.16549 0.275718,-0.11026 0.44115,0 3.639499,2.20575 5.514394,6.56212 3.860076,10.8082 -0.441152,1.10288 -1.874894,2.20575 -2.922628,1.93003 -0.441152,-0.11025 -0.661727,-0.33086 -0.882302,-0.60658 -0.496296,-0.66172 -1.047736,-1.2683 -1.874895,-1.54402 -0.882303,-0.27572 -1.654318,-0.11025 -2.426332,0.33086 -0.661727,0.38602 -1.323454,0.8823 -2.150613,0.38602 -0.496295,-0.27574 -1.323454,-1.98519 -1.158022,-2.53664 0.110294,-0.22057 0.330863,-0.22057 0.551438,-0.22057 1.378598,-0.22057 2.481477,-0.88229 3.529211,-1.76461 0.330863,-0.27572 0.606584,-0.27572 0.882304,0.11025 0.44115,0.66173 0.992591,1.21316 1.709461,1.59917 1.433743,0.82717 2.81234,0.11026 2.977772,-1.54402 0.165442,-1.3786 -0.330863,-2.59176 -0.772016,-3.80494 -0.496295,-1.10287 -1.102877,-2.1506 -1.764604,-3.14319 z"
       class="st2"
       style="fill:#24c2ff;stroke-width:0.551439" />
    <path
       id="path32"
       d="m 38.565818,169.65254 c -0.220575,1.10286 -0.716871,2.1506 -1.378598,3.08805 -1.985181,2.97777 -4.852667,4.19095 -8.381877,3.86009 -1.268309,-0.11026 -2.316045,-1.15804 -2.426332,-2.20578 -0.05515,-0.44113 0.05515,-0.772 0.330864,-1.10286 0.386007,-0.49631 0.71687,-0.93744 0.882302,-1.54404 0.330864,-1.21316 -0.110295,-2.20575 -0.992591,-3.08805 -1.213165,-1.21318 -1.047734,-2.31605 0.386007,-3.19836 0.165422,-0.11026 0.386009,-0.22057 0.606584,-0.33087 0.330864,-0.16548 0.606584,-0.16548 0.71687,0.22059 0.496296,1.26831 1.488886,2.20575 2.591766,2.97778 0.386006,0.33086 0.386006,0.55143 0.05515,0.93744 -0.661727,0.71687 -1.047734,1.59917 -1.102879,2.59176 -0.110295,1.21316 0.606584,1.98518 1.819749,1.98518 0.772016,0 1.488886,-0.27571 2.150614,-0.60658 1.709463,-0.88229 3.032917,-2.15062 4.301226,-3.47408 0.165421,-0.055 0.220577,-0.16548 0.441152,-0.11025 z"
       class="st4"
       style="fill:#0069da;stroke-width:0.551439" />
    <path
       id="path34"
       d="m 29.522213,158.07232 c 0.110295,0 0.386009,0.0552 0.661727,0.11025 2.040327,0.38601 3.308636,-0.33086 3.970363,-2.2609 0.441152,-1.26831 1.3786,-1.65432 2.591765,-0.99259 0.05515,0 0.05515,0.0552 0.110295,0.0552 1.268309,0.71688 1.268309,0.82717 0.496295,1.93004 -0.661727,0.88231 -0.99259,1.8749 -1.158022,2.92262 -0.110295,0.6066 -0.330864,0.71687 -0.882304,0.49631 -0.882302,-0.33087 -1.81975,-0.33087 -2.757195,0 -1.047736,0.33086 -1.488886,1.2683 -1.158023,2.31604 0.44115,1.3786 1.654318,1.98518 2.702052,2.70206 1.047734,0.71687 2.260902,1.10286 3.418924,1.59917 0.165422,0.0552 0.44115,0.0552 0.386007,0.33086 -0.05515,0.16548 -0.27572,0.16548 -0.496295,0.16548 -2.481477,0.11026 -4.852665,-0.27571 -6.782703,-1.93003 -1.81975,-1.48888 -3.143204,-3.30864 -2.922627,-5.84525 0.165442,-0.82717 0.772013,-1.43375 1.819747,-1.59917 z"
       class="st5"
       style="fill:#ff4649;stroke-width:0.551439" />
    <path
       id="path36"
       d="m 25.000412,173.56776 c -1.323454,0.16548 -2.646909,-0.93745 -2.757195,-2.31605 -0.110295,-1.32345 0.992591,-2.64691 2.260899,-2.7572 1.433743,-0.16549 2.757198,0.82717 2.867486,2.15062 0.05515,1.26831 -0.772016,2.81233 -2.37119,2.92263 z"
       class="st4"
       style="fill:#0069da;stroke-width:0.551439" />
    <path
       id="path38"
       d="m 48.160861,153.93651 c 1.378598,-0.11025 2.702052,0.99259 2.81234,2.37119 0.110295,1.32346 -0.99259,2.59176 -2.316045,2.70206 -1.433742,0.11025 -2.702051,-0.93744 -2.81234,-2.31605 -0.110295,-1.3786 0.882302,-2.6469 2.316045,-2.7572 z"
       class="st3"
       style="fill:#ffcb12;stroke-width:0.551439" />
    <path
       id="path40"
       d="m 33.768296,154.98425 c 0.165422,1.43375 -0.827159,2.64691 -2.316045,2.86748 -1.268311,0.16548 -2.591763,-0.8823 -2.757195,-2.09546 -0.165421,-1.59917 0.716871,-2.7572 2.205757,-2.92262 1.378597,-0.16549 2.702051,0.88229 2.867483,2.1506 z"
       class="st5"
       style="fill:#ff4649;stroke-width:0.551439" />
  </g>
</svg>
