<?xml version="1.0" encoding="utf-8"?>
<svg xmlns="http://www.w3.org/2000/svg" viewBox="40.223 41.521 1023.74 389.579" xmlns:bx="https://boxy-svg.com" width="1023.74px" height="389.579px"><defs><bx:export><bx:file format="svg" path="未命名.svg"/></bx:export></defs><path d="M0 0h1280v640H0V0Zm534.84 164.92-19.36 82.4-20.34 14.99q-.4.3-.55.77l-15.37 46.98q-.19.58.02 1.14l6.66 17.69q.2.54.66.19l25.37-19.81a1.25 1.24-15.4 0 0 .46-.8l1.13-8.59a1.04 1.01 72 0 1 .27-.55l9.88-9.99 16.41 84.64q.1.49.54.74l24.98 14.29-5.33 25.99 19.22 19.17q.33.33.8.33h37.41q.43 0 .74-.3l9.87-9.91 11.23 6.49q.45.26.9.01l11.37-6.51 9.91 9.89a1.13 1.11 67.1 0 0 .79.33h37.27q.59 0 1.01-.42l19.09-19.05-5.37-26.22 24.86-14.13q.44-.25.53-.74 8.23-41.9 16.25-83.79.04-.25.19-.34.17-.1.41-.1l9.38 9.57q.32.33.38.78l1.12 8.4q.07.53.49.85l25.33 19.77q.47.37.68-.19l6.72-17.89a1.14 1.11 46.5 0 0 .01-.73l-15.44-47.22q-.16-.49-.58-.79l-20.4-15.1-19.35-82.42-20.39-78.78q-.14-.52-.64-.74l-83.57-35.44q-.49-.21-.98 0l-83.56 35.43q-.5.21-.63.73l-20.48 78.98Zm113.32 326.31.92-36.27q.02-.54-.47-.29-6.17 3.17-13.11 3.84-.57.05-.19.48c3.33 3.67 3.58 8.8 3.62 13.51q.31 30.82-.1 61.65c-.02 2-.8 4.18-1.06 6.3a.67.66-77.4 0 0 .45.72c10.81 3.52 24.62 4.15 33.3-4.23 10.15-9.8 11.67-29.43 8.94-43-1.33-6.58-4.54-13.14-11.2-15.35-9.59-3.19-18.12 3.06-20.24 12.74a.44.43-38.2 0 1-.86-.1Zm48.55-19.274a7.3 5.74 91.8 0 0 5.967-7.116 7.3 5.74 91.8 0 0-5.508-7.476 7.3 5.74 91.8 0 0-5.966 7.116 7.3 5.74 91.8 0 0 5.508 7.476ZM535.06 492.74l.46-14.77q.01-.63-.58-.41-6.34 2.35-13.1 2.49a.32.32 0 0 0-.15.6c3.86 2.14 3.89 8.55 3.97 12.35q.51 23.23-.6 46.44c-.05 1.05-.46 2.06-.77 3.11a.42.42 0 0 0 .47.53q5.62-1.01 11.27-.16.63.1.45-.52c-2.73-9.22-1.6-22.27-.96-31.85.65-9.85 2.37-25.28 16.62-23.14q.37.05.42-.32l1.3-9.44a.59.59 0 0 0-.71-.66c-9.58 2.07-13.56 7.75-17.81 15.83q-.3.57-.28-.08Zm33.69-4.74v-10.54a.46.46 0 0 0-.64-.42q-6.07 2.52-12.66 2.89-.84.05-.23.63 3.34 3.15 3.56 6.7 1.26 20.24.06 49.88c-.08 1.82-.77 3.54-1.27 5.32q-.15.54.41.45 5.58-.86 11.17-.12.49.06.44-.43c-1.61-14.37-.74-30.14-.39-44.59q.12-5.1 3.86-8.85c4.69-4.71 13.98-3.03 14.73 4.58q2.34 23.62-.59 48.56-.06.49.43.49l11.22.02q.38 0 .32-.38c-2.27-14.69-1.08-32.2-.21-45.89.54-8.34 7.67-11.66 15.45-9.1a1.48 1.47-8.7 0 1 .78.57q2.63 3.78 2.72 9.5c.18 10.69 1.49 30.96-1.37 45.2q-.08.37.3.31 5.82-.92 11.65.06a.48.47-2.4 0 0 .54-.58c-.69-2.98-1.3-5.84-1.35-8.89q-.36-19.81-.34-39.62c.02-9.35-2.11-16.18-12.95-15.98q-11.34.19-16.19 11.28a.46.46 0 0 1-.88-.14c-1.4-13.42-17.94-14.31-25.2-5.48-1.04 1.27-1.91 3.14-2.88 4.71q-.49.79-.49-.14Zm122.3 54.97c5.7-.77 8.83-.31 12.39-.03q.47.04.34-.41-1.45-5.14-1.65-13.04-.78-29.84.63-51.75.04-.54-.46-.32-5.87 2.64-12.31 3.33-.67.07-.23.57c2.92 3.31 2.68 7.6 2.88 12.84.46 12.01-.11 24.24-.2 36.28q-.05 6.14-1.8 12.04-.17.57.41.49Zm83.21-54.51-.25-10.84q-.01-.52-.48-.28-5.39 2.79-11.5 3.12-.54.03-.2.46c2.82 3.55 3.07 11.65 3.1 16.33q.11 19.76-.66 39.5-.07 1.74-1.1 5.7-.1.38.28.37l11.63-.07q.46 0 .39-.46c-2.22-14.16-1.17-31.02-.51-44.15.44-8.59 7.31-15.33 15.92-12.28 4.91 1.74 5.29 6.76 5.32 11.4.14 18.7 1.12 32.62-1.34 45.1q-.08.42.34.42l11.66.03q.49 0 .4-.49c-.59-3.16-1.26-6.14-1.26-9.33q.02-19.16-.03-38.32c-.02-8.68-1.88-15.41-11.72-16.66q-14.42-1.82-19.82 10.49-.16.37-.17-.04ZM503.72 531l.35 11.15a.59.59 0 0 0 .58.57l10.15.2q.42 0 .25-.38-2.13-4.9-2.09-10.28.13-19.42-.07-38.81c-.22-20.79-26.11-16.87-37.93-10.67q-.44.23-.28.69l2.57 7.44q.14.41.47.13 5.62-4.62 12.84-5.7c12.34-1.87 13.84 7.76 13.1 17.03a.57.56-84.5 0 1-.62.52c-9.79-1.1-22.1-.84-27.56 8.15-5.97 9.82-4.14 30.93 10.11 32.18 8.47.75 14.83-4.52 17.55-12.31a.3.3 0 0 1 .58.09Zm239.45.25.5 11.11a.44.44 0 0 0 .43.42l10.46.12q.44.01.24-.38c-.81-1.51-1.47-2.61-1.63-4.38-1.25-13.79-.58-27.79-.42-41.62.12-9.73-2.96-16.64-13.36-18.13q-13-1.86-24.95 4.43-.4.22-.24.65l2.68 7.33q.18.51.6.16 6.65-5.57 15.1-5.68c11.09-.14 11 8.97 10.64 17.18q-.02.5-.52.43c-13.65-1.72-28.17.12-30.44 16.64-1.08 7.84.67 20.45 9.64 23.07q11.41 3.33 18.08-6.78 1.51-2.31 2.94-4.63.23-.37.25.06Zm-161.66 16.02a.27.27 0 0 0-.27-.27h-1.72a.27.27 0 0 0-.27.27v21.22a.27.27 0 0 0 .27.27h1.72a.27.27 0 0 0 .27-.27v-21.22Zm99.23 1.36a1.49 1.49 0 0 0-1.49-1.49 1.49 1.49 0 0 0-1.49 1.49 1.49 1.49 0 0 0 1.49 1.49 1.49 1.49 0 0 0 1.49-1.49Zm-171.98.01a1.44 1.44 0 0 0-1.44-1.44 1.44 1.44 0 0 0-1.44 1.44 1.44 1.44 0 0 0 1.44 1.44 1.44 1.44 0 0 0 1.44-1.44Zm160.22 7.88c.06 3.58-1.83 14.27 5.21 12.38q1.4-.38.61-1.95a.5.49 66.4 0 0-.61-.24q-2.92 1.09-2.93-1.7-.03-4.23 0-8.51 0-.49.49-.49l2.44-.03A1.04.95 42.1 0 0 674 554h-2.25q-.5 0-.5-.5v-3.36q0-.68-.63-.41l-1.12.5q-.5.22-.5.77v2.23q0 .73-.73.76l-1.24.04a.95.95 0 0 0-.04 1.89l1.54.12q.44.03.45.48Zm96.74 0c.08 3.66-1.82 13.5 5 12.37q.66-.11.93-.52.34-.53.02-1.25a.69.69 0 0 0-.92-.35q-1.71.79-2.38-.96-.86-2.27-.18-9.32.05-.49.53-.49h2.4q.63 0 .63-.62v-.76q0-.62-.62-.62h-2.51q-.62 0-.62-.63v-2.89q0-.9-.85-.59-2.17.81-1.22 3.13a.71.71 0 0 1-.66.98h-1.2a.95.95 0 0 0-.11 1.9l1.33.16q.42.05.43.46Zm-192.96 10.71q-.15.89.42 1.51a1.08 1.08 0 0 0 1.87-.75l-.18-11.21a.97.96-64 0 0-.2-.59q-3.27-4.18-8.59-1.77-1.63.75-1.1 2.25.21.56.72.25c2.78-1.74 6.26-2.31 6.96 1.67q.1.56-.45.67c-2.2.45-5.17.66-6.8 1.77-4.74 3.2-.56 9.68 4.91 7.52q.43-.17.75-.5l1.12-1.11a.34.34 0 0 1 .57.29Zm34.625-7.105a6.39 6.39 0 0 0-6.312-6.467l-1.2-.015a6.39 6.39 0 0 0-6.467 6.312l-.03 2.48a6.39 6.39 0 0 0 6.31 6.467l1.2.015a6.39 6.39 0 0 0 6.468-6.312l.03-2.48Zm5.845-4.395.3-.98a.57.57 0 0 0-.54-.75h-1.1q-.68 0-.68.68l-.01 20.01q0 .56.56.56h1.11q.63 0 .63-.62v-7.14q0-.92.63-.25 2.83 3.03 6.2 1.36c9.04-4.45 2.32-21.65-6.57-12.56a.32.31-14.2 0 1-.53-.31Zm98.14 11.54c.59 7.33-4.77 6.38-9.45 5.33q-.47-.11-.45.38l.04 1.26q.02.42.41.55c15.08 4.94 11.89-12.41 11.82-20.22q-.01-.59-.6-.58l-1.25.04q-.39.01-.39.39v.8q0 .74-.51.21c-3.32-3.46-8.85-1.58-9.99 2.83-1.71 6.58 2.42 14.87 9.98 8.84q.36-.29.39.17Zm40.86-10.63c-1.65 3.8 3.46 5.48 5.92 6.57a1.92 1.92 0 0 1-.32 3.62q-2.89.71-5.37-.8-.43-.26-.61.21c-1.67 4.35 11.94 3.94 9.19-3.11-1.03-2.67-8.15-3.17-6.62-6.17 1.07-2.12 4.28-1.53 5.95-.6q.63.35.63-.37v-1.01q0-.62-.58-.84c-2.9-1.07-6.84-.61-8.19 2.5Zm48.21-.77c-2.33-3.63-5.37-2.42-7.94-.05q-.6.55-.48-.25l.13-.84q.09-.61-.52-.66l-1.22-.09q-.66-.05-.66.61v13.66q0 .5.5.5h1.25a.6.6 0 0 0 .6-.64c-.22-3.68-.7-10.97 2.05-12.23 6.27-2.87 4.95 9.47 4.75 12.22q-.05.65.6.65h1.2q.6 0 .58-.6c-.1-3.35-1.58-13.8 4.82-12.41a1.39 1.34-11.4 0 1 .8.51c1.89 2.56 1.08 8.8 1.11 12q.01.5.51.5h1.27q.64 0 .67-.64c.15-4.12 1.66-17.51-7.16-13.98q-.51.21-.9.59l-1.22 1.23q-.42.42-.74-.08ZM492 555.44q.03-.5-.01-.7a1.14 1.13-51.5 0 0-2.24.26v13.12q0 .63.62.63h1.11q.62 0 .59-.62-.27-6.73.06-8.94c.61-4.06 6.98-5.33 7.03-.43q.04 4.68.26 9.41.03.58.61.58h1.19q.47 0 .48-.47c.14-6.07 1.91-16.62-7.1-14.18q-.48.13-.83.5l-1.09 1.14a.4.39-21.1 0 1-.68-.3Zm39.23-1.57c-9.59 1.88-5.49 20.42 5.55 14.08.66-.38.86-1.13.67-1.82q-.16-.58-.65-.25c-3.38 2.25-8.43 1.29-8.38-3.58q.01-.51.52-.5l8.43.27q1.33.04 1.25-1.29c-.28-4.47-2.48-7.88-7.39-6.91Zm12.87 2.64.21-1.81a.62.62 0 0 0-.62-.7h-1.19q-.5 0-.5.5v13.62q0 .63.63.63h1.31q.53 0 .48-.53c-.37-3.79-1.2-13.96 4.61-12.11q.69.22.55-.49l-.29-1.48a.65.65 0 0 0-.71-.51q-2.97.34-4.04 2.99a.23.23 0 0 1-.44-.11Zm14.17 7.28q.78 1.2.16 2.15c-1.25 1.91-5 .92-6.56.01q-.56-.32-.66.31c-.75 4.79 11.4 3.27 9.64-2.47-.72-2.36-3.99-3.45-6.17-4.41a1.72 1.72 0 0 1-.31-2.97q2.66-1.9 5.4.04.37.27.43-.19l.17-1.35q.07-.57-.47-.74c-3.31-1.03-10.19.28-8.33 4.89.92 2.24 3.88 3.21 6.06 4.18a1.5 1.49 85.4 0 1 .64.55Zm71.98-1.79h8.99a.76.75-1.1 0 0 .76-.78c-.45-12.52-14.57-7.89-12.71 1.77 1.04 5.4 7.11 8.39 11.79 4.38a.89.89 0 0 0-1.08-1.4c-3.31 2.29-7.94.96-8.22-3.46q-.03-.51.47-.51Zm15.24-5.98.29-1.16q.21-.86-.68-.86h-1.22q-.63 0-.63.62v13.51q0 .62.63.62h1.31q.6 0 .59-.6c-.09-4.77-1.42-12.92 4.71-12.18q.75.08.57-.65l-.27-1.1a.93.93 0 0 0-1.14-.68q-2.38.6-3.53 2.72a.34.34 0 0 1-.63-.24Zm16.01 11.47v.76q0 .5.5.5h1.23q.49 0 .5-.49.07-4.69-.01-9.37c-.1-5.72-5.5-6.4-9.54-3.99q-1.1.66-.22 1.83.28.38.67.1c2.43-1.71 6.42-2.3 6.83 1.86q.04.48-.43.57c-2.28.42-5.34.59-7.02 2.01-4.79 4.05 1.54 11.1 6.9 5.97q.59-.56.59.25Zm25.62-12.01q.67-1.14-.83-1.8a.92.91 12 0 0-1.29.83v13.74q0 .5.5.5h1.25q.51 0 .51-.52c-.03-3.72-1.53-13.23 4.98-12.62a1.44 1.42-21.2 0 1 .85.37c2.67 2.43 1.64 8.67 1.67 12.09q.01.68.69.68h1.08q.64 0 .6-.63c-.17-3.35.54-9.83-.92-12.33-1.86-3.18-6.27-2.55-8.61.2a.16.16 0 0 1-.23.01l-.22-.22q-.13-.14-.03-.3Zm40.07 5.33c1.76 1.23 6.82 2.31 5.28 5.27a1.31 1.28-84.6 0 1-.76.64q-2.95.87-5.55-.64-.39-.23-.55.19c-1.8 4.66 12.61 3.4 9.07-3.27-.91-1.72-4.12-2.83-5.97-3.67a1.69 1.69 0 0 1-.23-2.95q2.62-1.71 5.42-.03.6.35.6-.34v-1.07q0-.61-.58-.8-3.84-1.32-6.64.77c-2.06 1.54-2.29 4.37-.09 5.9Zm53.27-7.07c-10.62-.57-8.26 20.67 3.88 14.31q1.24-.64.84-1.94-.17-.53-.65-.24c-3.59 2.15-8.32 1.43-8.34-3.58q0-.51.5-.49l8.25.27q1.52.05 1.41-1.46-.46-6.58-5.89-6.87Zm-297.69 13.7q-.2 1.03.88 1.53a1.03 1.02-77.9 0 0 1.45-.94l-.09-13.53q0-.5-.5-.5h-1.04a.73.73 0 0 0-.73.74c.03 2.55.61 8.45-.69 10.52-1.41 2.25-5.19 2.38-6.3-.01-1.07-2.31-.5-7.81-.5-10.53a.72.72 0 0 0-.72-.72h-.82q-.75 0-.75.75c.04 5.09-1.94 15.92 7.08 14.07q.57-.12.98-.51l1.23-1.16q.71-.67.52.29Zm25.776-12.933a.48.48 0 0 0-.478-.483l-1.52-.008a.48.48 0 0 0-.482.478l-.072 13.76a.48.48 0 0 0 .477.482l1.52.008a.48.48 0 0 0 .483-.478l.072-13.76ZM517.5 565.7l-3.75-11.07q-.22-.63-.88-.63h-1.16q-.7 0-.46.66l5 13.32a1.46 1.46 0 0 0 2.73.03l5.24-13.25q.15-.38-.21-.56-1.72-.92-2.23.55-1.9 5.58-3.94 10.96a.18.18 0 0 1-.34-.01Zm163.004-11.196a.49.49 0 0 0-.488-.491l-1.5-.006a.49.49 0 0 0-.492.489l-.048 13.76a.49.49 0 0 0 .488.491l1.5.006a.49.49 0 0 0 .492-.489l.048-13.76Zm62.656 10.966-3.83-10.88q-.2-.59-.83-.59h-1.21q-.72 0-.46.67l5.22 13.41q.2.54-.03 1.06l-1.5 3.38q-.26.58-.89.7l-2.32.41q-.54.1-.33.61l.41 1.03a.37.37 0 0 0 .33.23q3.86.15 5.23-3.06 2.03-4.78 7.01-17.83.24-.61-.42-.61h-1.06q-.65 0-.86.61l-3.89 10.86a.3.3 0 0 1-.57 0Z" style="fill: none;"/><path fill="#231f20" d="M 308.128 158.476 C 308.015 158.656 307.905 158.742 307.798 158.736 L 268.058 105.126 C 267.858 104.852 267.592 104.739 267.258 104.786 C 247.032 107.812 226.798 110.809 206.558 113.776 C 204.378 114.096 202.195 114.076 200.008 113.716 C 179.795 110.362 159.545 107.039 139.258 103.746 C 138.925 103.692 138.658 103.802 138.458 104.076 L 98.268 158.736 C 98.142 158.709 98.012 158.682 97.878 158.656 L 118.358 79.676 C 118.445 79.329 118.655 79.086 118.988 78.946 L 202.548 43.516 C 202.875 43.376 203.202 43.376 203.528 43.516 L 287.098 78.956 C 287.432 79.102 287.645 79.349 287.738 79.696 L 308.128 158.476 Z" style="stroke-width: 1px;"/><path fill="#fff" d="M 307.798 158.736 C 308.658 161.406 307.628 161.886 306.158 163.476 C 287.572 183.676 268.922 203.816 250.208 223.896 C 249.991 224.131 249.687 224.265 249.368 224.266 L 217.548 224.206 L 238.928 194.086 C 239.502 193.519 239.898 192.912 240.118 192.266 C 240.232 191.926 240.148 191.649 239.868 191.436 C 239.568 191.202 239.242 191.046 238.888 190.966 C 226.515 183.552 214.152 176.192 201.798 168.886 C 201.598 168.772 201.412 168.719 201.238 168.726 C 201.052 168.739 200.868 168.782 200.688 168.856 L 162.278 191.686 C 161.965 191.872 161.912 192.112 162.118 192.406 L 184.748 224.196 L 156.598 224.216 C 156.265 224.216 155.985 224.092 155.758 223.846 C 136.578 203.159 117.425 182.452 98.298 161.726 C 97.705 161.086 97.695 160.089 98.268 158.736 L 138.458 104.076 C 138.658 103.802 138.925 103.692 139.258 103.746 C 159.545 107.039 179.795 110.362 200.008 113.716 C 202.195 114.076 204.378 114.096 206.558 113.776 C 226.798 110.809 247.032 107.812 267.258 104.786 C 267.592 104.739 267.858 104.852 268.058 105.126 L 307.798 158.736 Z M 177.498 140.526 C 177.498 135.296 173.258 131.056 168.028 131.056 C 162.798 131.056 158.558 135.296 158.558 140.526 C 158.558 145.756 162.798 149.996 168.028 149.996 C 173.258 149.996 177.498 145.756 177.498 140.526 Z M 249.088 140.526 C 249.088 138.017 248.092 135.611 246.318 133.837 C 244.543 132.062 242.137 131.066 239.628 131.066 C 237.119 131.066 234.713 132.062 232.939 133.837 C 231.165 135.611 230.168 138.017 230.168 140.526 C 230.168 143.035 231.165 145.441 232.939 147.215 C 234.713 148.989 237.119 149.986 239.628 149.986 C 242.137 149.986 244.543 148.989 246.318 147.215 C 248.092 145.441 249.088 143.035 249.088 140.526 Z" style="stroke-width: 1px;"/><circle cx="168.028" cy="140.526" r="9.47" fill="#404042" style="stroke-width: 1px;"/><circle cx="239.628" cy="140.526" r="9.46" fill="#404042" style="stroke-width: 1px;"/><path fill="#404042" d="M 308.128 158.476 L 327.478 240.896 L 319.438 282.526 C 319.398 282.739 319.438 282.936 319.558 283.116 L 319.788 283.446 C 319.628 283.446 319.492 283.479 319.378 283.546 C 319.278 283.606 319.215 283.719 319.188 283.886 C 313.842 311.812 308.425 339.742 302.938 367.676 C 302.878 368.002 302.702 368.249 302.408 368.416 L 277.548 382.546 L 276.348 377.126 C 276.262 376.746 276.022 376.552 275.628 376.546 L 259.248 376.526 L 244.568 356.396 C 244.499 356.299 244.387 356.242 244.268 356.242 C 244.15 356.242 244.038 356.299 243.968 356.396 L 229.148 376.536 L 212.648 376.536 C 212.322 376.536 212.128 376.692 212.068 377.006 L 205.508 408.166 C 205.455 408.439 205.535 408.662 205.748 408.836 L 206.008 409.046 L 214.848 418.016 L 203.478 424.526 C 203.178 424.692 202.878 424.689 202.578 424.516 L 191.348 418.026 L 200.328 409.066 C 200.242 408.939 200.308 408.796 200.528 408.636 C 200.675 408.529 200.728 408.392 200.688 408.226 L 194.138 377.146 C 194.052 376.732 193.795 376.526 193.368 376.526 L 176.978 376.476 L 162.198 356.276 C 162.138 356.198 162.046 356.152 161.949 356.152 C 161.853 356.152 161.763 356.198 161.708 356.276 L 146.868 376.516 L 130.698 376.516 C 130.305 376.516 130.065 376.702 129.978 377.076 L 128.638 382.746 L 103.658 368.456 C 103.365 368.289 103.185 368.042 103.118 367.716 L 86.708 283.076 L 78.518 241.056 L 97.878 158.656 C 98.012 158.682 98.142 158.709 98.268 158.736 C 97.695 160.089 97.705 161.086 98.298 161.726 C 117.425 182.452 136.578 203.159 155.758 223.846 C 155.985 224.092 156.265 224.216 156.598 224.216 L 184.748 224.196 L 201.268 246.936 L 217.549 224.206 L 249.369 224.266 C 249.687 224.265 249.991 224.131 250.209 223.896 C 268.922 203.816 287.572 183.676 306.159 163.476 C 307.629 161.886 308.659 161.406 307.799 158.736 C 307.905 158.742 308.015 158.656 308.129 158.476 L 308.128 158.476 Z" style="stroke-width: 1px;"/><path fill="#ed1b24" d="M 238.888 190.966 C 238.288 192.299 238.302 193.339 238.928 194.086 L 217.548 224.206 L 201.268 246.936 L 201.278 170.536 C 201.278 170.397 201.251 170.258 201.198 170.126 L 200.688 168.856 C 200.868 168.782 201.052 168.739 201.238 168.726 C 201.412 168.719 201.598 168.772 201.798 168.886 C 214.152 176.192 226.515 183.552 238.888 190.966 Z" style="stroke-width: 1px;"/><path fill="#f78222" d="M 200.688 168.856 L 201.198 170.126 C 201.251 170.258 201.278 170.397 201.278 170.536 L 201.268 246.936 L 184.748 224.196 L 162.118 192.406 C 161.912 192.112 161.965 191.872 162.278 191.686 L 200.688 168.856 Z M 238.888 190.966 C 239.242 191.046 239.568 191.202 239.868 191.436 C 240.148 191.649 240.232 191.926 240.118 192.266 C 239.898 192.912 239.502 193.519 238.928 194.086 C 238.302 193.339 238.288 192.299 238.888 190.966 Z" style="stroke-width: 1px;"/><path fill="#231f20" d="M 327.478 240.896 L 347.878 255.996 C 348.158 256.196 348.352 256.459 348.458 256.786 L 363.898 304.006 C 363.976 304.246 363.973 304.502 363.888 304.736 L 357.168 322.626 C 357.028 322.999 356.802 323.062 356.488 322.816 L 331.158 303.046 C 330.878 302.832 330.715 302.549 330.668 302.196 L 329.548 293.796 C 329.508 293.496 329.382 293.236 329.168 293.016 L 319.788 283.446 L 319.558 283.116 C 319.438 282.936 319.398 282.739 319.438 282.526 L 327.478 240.896 Z M 78.518 241.056 L 86.708 283.076 L 76.828 293.066 C 76.685 293.216 76.591 293.408 76.558 293.616 L 75.428 302.206 C 75.384 302.521 75.219 302.807 74.968 303.006 L 49.598 322.816 C 49.292 323.049 49.072 322.986 48.938 322.626 L 42.278 304.936 C 42.138 304.562 42.132 304.182 42.258 303.796 L 57.628 256.816 C 57.728 256.502 57.912 256.246 58.178 256.046 L 78.518 241.056 Z" style="stroke-width: 1px;"/><path fill="#ed1b24" d="M 176.978 376.476 L 146.868 376.516 L 161.708 356.276 C 161.763 356.198 161.853 356.152 161.949 356.152 C 162.046 356.152 162.138 356.198 162.198 356.276 L 176.978 376.476 Z M 259.248 376.526 L 229.148 376.536 L 243.968 356.396 C 244.038 356.299 244.15 356.242 244.268 356.242 C 244.387 356.242 244.499 356.299 244.568 356.396 L 259.248 376.526 Z" style="stroke-width: 1px;"/><path fill="#f78222" d="M 146.868 376.516 L 176.978 376.476 L 193.368 376.526 C 193.795 376.526 194.052 376.732 194.138 377.146 L 200.688 408.226 C 200.728 408.392 200.675 408.529 200.528 408.636 C 200.308 408.796 200.242 408.939 200.328 409.066 L 199.878 408.786 C 199.604 408.616 199.285 408.526 198.958 408.526 L 123.308 408.736 L 128.638 382.746 L 129.978 377.076 C 130.065 376.702 130.305 376.516 130.698 376.516 L 146.868 376.516 Z M 229.148 376.536 L 259.248 376.526 L 275.628 376.546 C 276.022 376.552 276.262 376.746 276.348 377.126 L 277.548 382.546 L 282.918 408.766 L 207.608 408.456 C 207.309 408.456 207.019 408.55 206.778 408.726 C 206.538 408.899 206.282 409.006 206.008 409.046 L 205.748 408.836 C 205.535 408.662 205.455 408.439 205.508 408.166 L 212.068 377.006 C 212.128 376.692 212.322 376.536 212.648 376.536 L 229.148 376.536 Z" style="stroke-width: 1px;"/><path fill="#ed1b24" d="M 200.328 409.066 L 191.348 418.026 L 181.478 427.936 C 181.272 428.136 181.025 428.236 180.738 428.236 L 143.328 428.236 C 143.015 428.236 142.748 428.126 142.528 427.906 L 123.308 408.736 L 198.958 408.526 C 199.285 408.526 199.604 408.616 199.878 408.786 L 200.328 409.066 Z M 282.918 408.766 L 263.828 427.816 C 263.548 428.096 263.212 428.236 262.818 428.236 L 225.548 428.236 C 225.254 428.235 224.969 428.117 224.758 427.906 L 214.848 418.016 L 206.008 409.046 C 206.282 409.006 206.538 408.899 206.778 408.726 C 207.019 408.55 207.309 408.456 207.608 408.456 L 282.918 408.766 Z" style="stroke-width: 1px;"/><path fill="#6d6e70" d="M 740.79 189.965 C 740.773 190.405 741.094 190.78 741.532 190.83 C 741.971 190.882 742.384 190.592 742.486 190.162 C 746.667 171.072 763.488 158.747 782.402 165.037 C 795.529 169.396 801.87 182.332 804.492 195.309 C 809.868 222.07 806.873 260.782 786.855 280.108 C 769.742 296.634 742.507 295.392 721.188 288.451 C 720.593 288.257 720.219 287.662 720.3 287.03 C 720.813 282.849 722.352 278.55 722.391 274.606 C 722.931 234.074 722.997 193.548 722.589 153.028 C 722.51 143.739 722.016 133.622 715.45 126.384 C 714.951 125.818 715.075 125.504 715.823 125.439 C 724.949 124.558 733.567 122.034 741.678 117.866 C 742.323 117.537 742.632 117.728 742.606 118.437 L 740.79 189.965 Z M 743.768 279.299 C 769.622 284.782 781.218 269.755 785.281 246.148 C 787.989 230.531 789.124 199.056 776.879 186.672 C 761.892 171.505 745.109 191.779 743.768 206.273 C 741.573 230.175 741.205 254.091 742.664 278.018 C 742.703 278.728 743.073 279.157 743.768 279.299 Z" style="stroke-width: 1px;"/><ellipse fill="#6d6e70" rx="14.396" ry="11.319" transform="matrix(-0.031411, 0.999507, -0.999507, -0.031411, 836.988098, 137.564026)" style="stroke-width: 1px;"/><path fill="#6d6e70" d="M 518.301 193.1 C 526.683 177.165 534.531 165.965 553.424 161.883 C 553.796 161.802 554.186 161.908 554.466 162.166 C 554.746 162.426 554.879 162.807 554.824 163.184 L 552.26 181.8 C 552.197 182.287 551.92 182.497 551.433 182.431 C 523.331 178.211 519.939 208.641 518.656 228.064 C 517.395 246.958 515.166 272.693 520.55 290.875 C 520.787 291.691 520.491 292.033 519.662 291.901 C 512.236 290.782 504.826 290.89 497.437 292.216 C 497.16 292.261 496.874 292.16 496.688 291.947 C 496.501 291.736 496.433 291.444 496.51 291.171 C 497.122 289.1 497.931 287.109 498.03 285.039 C 499.489 254.524 499.882 223.996 499.212 193.455 C 499.054 185.961 498.996 173.321 491.384 169.101 C 491.136 168.961 491.008 168.672 491.077 168.394 C 491.145 168.117 491.392 167.92 491.681 167.917 C 500.567 167.734 509.179 166.097 517.512 163.007 C 518.289 162.717 518.671 162.987 518.656 163.815 L 517.75 192.943 C 517.723 193.796 517.907 193.849 518.304 193.1 L 518.301 193.1 Z M 585.155 183.872 C 587.067 180.775 588.784 177.086 590.834 174.583 C 605.151 157.17 637.77 158.923 640.531 185.389 C 640.57 185.801 640.883 186.136 641.291 186.199 C 641.7 186.265 642.102 186.046 642.265 185.665 C 648.644 171.086 659.285 163.671 674.193 163.421 C 695.57 163.025 699.771 176.495 699.733 194.934 C 699.708 220.98 699.929 247.023 700.403 273.068 C 700.502 279.083 701.704 284.722 703.066 290.6 C 703.145 290.902 703.061 291.22 702.846 291.451 C 702.633 291.682 702.315 291.79 702 291.743 C 694.337 290.455 686.677 290.417 679.026 291.625 C 678.527 291.704 678.329 291.501 678.434 291.014 C 684.073 262.931 681.491 222.958 681.135 201.875 C 681.017 194.356 679.231 188.111 675.771 183.141 C 675.4 182.604 674.861 182.208 674.234 182.017 C 658.891 176.969 644.83 183.516 643.765 199.963 C 642.049 226.961 639.702 261.491 644.179 290.462 C 644.258 290.96 644.049 291.211 643.547 291.211 L 621.421 291.171 C 620.778 291.171 620.495 290.85 620.573 290.204 C 624.427 257.416 624.813 225.495 621.736 194.442 C 620.257 179.433 601.937 176.12 592.688 185.41 C 587.772 190.34 585.236 196.157 585.076 202.862 C 584.388 231.359 582.672 262.457 585.847 290.798 C 585.913 291.442 585.623 291.723 584.979 291.644 C 577.63 290.672 570.286 290.751 562.951 291.881 C 562.214 292 561.945 291.704 562.144 290.993 C 563.128 287.484 564.49 284.091 564.647 280.503 C 566.225 241.534 566.185 208.744 564.529 182.136 C 564.239 177.467 561.898 173.063 557.509 168.923 C 556.706 168.159 556.857 167.746 557.962 167.68 C 566.625 167.193 574.947 165.295 582.928 161.981 C 583.206 161.863 583.526 161.89 583.781 162.058 C 584.035 162.223 584.187 162.505 584.19 162.809 L 584.19 183.595 C 584.19 184.818 584.512 184.91 585.157 183.872 L 585.155 183.872 Z M 849.801 291.941 C 842.779 291.389 836.614 290.48 825.38 292 C 824.612 292.104 824.338 291.783 824.568 291.033 C 826.872 283.277 828.046 275.361 828.112 267.29 C 828.287 243.546 829.406 219.427 828.518 195.744 C 828.112 185.41 828.594 176.949 822.824 170.422 C 822.253 169.766 822.396 169.39 823.285 169.298 C 831.743 168.39 839.85 166.201 847.563 162.731 C 848.221 162.442 848.528 162.652 848.473 163.362 C 846.619 192.167 846.202 226.185 847.223 265.416 C 847.486 275.803 848.572 284.374 850.47 291.132 C 850.645 291.723 850.415 291.993 849.801 291.941 Z M 989.807 184.581 C 996.905 168.395 1009.93 161.501 1028.88 163.895 C 1048.29 166.359 1051.97 179.63 1052.01 196.749 C 1052.09 221.938 1052.1 247.129 1052.06 272.318 C 1052.06 278.609 1053.38 284.486 1054.55 290.719 C 1054.67 291.364 1054.41 291.685 1053.76 291.685 L 1030.77 291.625 C 1030.21 291.625 1029.99 291.348 1030.09 290.798 C 1034.95 266.186 1033.01 238.734 1032.73 201.857 C 1032.68 192.705 1031.93 182.806 1022.24 179.375 C 1005.26 173.359 991.716 186.651 990.85 203.592 C 989.544 229.485 987.482 262.734 991.859 290.658 C 991.958 291.264 991.694 291.565 991.08 291.565 L 968.151 291.704 C 967.658 291.718 967.471 291.472 967.603 290.974 C 968.952 285.768 969.676 282.021 969.764 279.733 C 970.784 253.782 971.223 227.815 971.082 201.837 C 971.004 192.607 970.521 176.634 964.959 169.633 C 964.509 169.067 964.641 168.765 965.354 168.726 C 973.384 168.291 980.955 166.242 988.03 162.573 C 988.655 162.257 988.974 162.442 988.974 163.124 L 989.467 184.501 C 989.478 185.041 989.599 185.067 989.807 184.581 Z M 455.945 268.393 C 455.931 268.115 455.723 267.885 455.446 267.843 C 455.17 267.798 454.902 267.955 454.801 268.216 C 449.436 283.579 436.895 293.971 420.191 292.492 C 392.089 290.027 388.48 248.396 400.254 229.031 C 411.021 211.302 435.297 210.789 454.603 212.959 C 454.9 212.991 455.198 212.9 455.428 212.709 C 455.657 212.516 455.803 212.235 455.827 211.933 C 457.286 193.653 454.327 174.662 429.992 178.349 C 420.5 179.77 412.061 183.516 404.671 189.589 C 404.237 189.958 403.93 189.871 403.745 189.334 L 398.676 174.662 C 398.467 174.056 398.651 173.603 399.227 173.301 C 422.538 161.075 473.596 153.343 474.029 194.343 C 474.294 219.835 474.337 245.346 474.167 270.879 C 474.116 277.952 475.488 284.709 478.289 291.152 C 478.513 291.65 478.347 291.901 477.795 291.901 L 457.779 291.507 C 457.16 291.496 456.657 291.002 456.635 290.382 L 455.945 268.393 Z M 421.533 272.221 C 425.412 274.797 428.554 275.835 430.959 275.336 C 455.491 270.288 455.611 246.031 455.866 226.271 C 455.872 225.945 455.749 225.634 455.528 225.401 C 455.306 225.167 455.002 225.034 454.683 225.028 C 440.405 224.733 423.189 222.76 415.556 237.768 C 410.627 247.451 411.613 265.653 421.533 272.221 Z M 927.67 268.769 C 925.783 271.819 923.852 274.862 921.877 277.898 C 913.101 291.191 901.209 295.648 886.212 291.269 C 868.516 286.102 865.072 261.235 867.2 245.774 C 871.687 213.196 900.321 209.567 927.231 212.959 C 927.889 213.052 928.229 212.768 928.251 212.111 C 928.964 195.921 929.151 177.954 907.276 178.23 C 896.162 178.375 886.245 182.11 877.49 189.433 C 876.942 189.891 876.558 189.788 876.317 189.118 L 871.029 174.662 C 870.809 174.096 870.975 173.67 871.5 173.38 C 887.21 165.111 903.613 162.198 920.704 164.643 C 941.219 167.581 947.285 181.209 947.044 200.397 C 946.748 227.671 945.42 255.28 947.878 282.474 C 948.196 285.965 949.49 288.134 951.092 291.112 C 951.355 291.625 951.202 291.876 950.62 291.861 L 929.996 291.625 C 929.535 291.615 929.162 291.253 929.151 290.798 L 928.164 268.887 C 928.131 268.321 927.977 268.281 927.67 268.769 Z M 885.609 258.16 C 886.684 266.855 893.826 276.124 903.249 275.276 C 926.266 273.167 929.579 244.177 927.703 226.369 C 927.637 225.739 927.297 225.39 926.672 225.324 C 902.295 222.879 881.857 227.75 885.609 258.16 Z" style="stroke-width: 1px;"/><rect width="4.457" height="42.911" x="604.895" y="299.947" fill="#6d6e70" rx="0.27" style="stroke-width: 1px;"/><circle cx="802.1" cy="303.161" r="2.938" fill="#6d6e70" style="stroke-width: 1px;"/><circle cx="463.044" cy="303.181" r="2.839" fill="#6d6e70" style="stroke-width: 1px;"/><path fill="#6d6e70" d="M 780.961 317.775 L 777.925 317.537 C 776.97 317.421 776.259 316.599 776.28 315.639 C 776.3 314.677 777.045 313.885 778.004 313.811 L 780.449 313.732 C 781.409 313.692 781.888 313.194 781.888 312.233 L 781.888 307.835 C 781.888 307.111 782.217 306.607 782.874 306.317 L 785.083 305.33 C 785.911 304.976 786.326 305.247 786.326 306.14 L 786.326 312.765 C 786.326 313.422 786.655 313.752 787.309 313.752 L 791.753 313.752 C 792.795 313.803 793.702 314.654 793.796 315.694 C 793.889 316.734 793.155 317.593 792.127 317.657 L 787.309 317.715 C 786.668 317.715 786.345 318.036 786.345 318.682 C 786.306 324.307 786.306 329.903 786.345 335.464 C 786.36 339.132 788.283 340.249 792.127 338.817 C 792.581 338.645 793.101 338.848 793.328 339.29 C 794.369 341.354 793.969 342.636 792.127 343.135 C 778.239 346.862 781.968 325.782 781.849 318.721 C 781.837 318.13 781.54 317.814 780.961 317.775 Z M 971.783 317.814 L 969.15 317.499 C 968.129 317.439 967.34 316.552 967.394 315.516 C 967.46 314.481 968.339 313.692 969.38 313.752 L 971.739 313.752 C 972.211 313.754 972.649 313.521 972.913 313.133 C 973.176 312.745 973.22 312.251 973.055 311.819 C 971.794 308.767 972.594 306.71 975.436 305.647 C 976.577 305.238 977.125 305.627 977.125 306.809 L 977.125 312.509 C 977.125 313.337 977.531 313.752 978.354 313.752 L 983.291 313.752 C 984.114 313.752 984.521 314.161 984.521 314.975 L 984.521 316.472 C 984.521 317.288 984.103 317.696 983.28 317.696 L 978.541 317.696 C 977.915 317.696 977.575 318.017 977.498 318.662 C 976.621 327.931 976.719 334.059 977.86 337.042 C 978.738 339.344 980.296 339.974 982.545 338.934 C 982.875 338.783 983.247 338.769 983.609 338.9 C 983.949 339.03 984.223 339.29 984.355 339.624 C 984.795 340.571 984.772 341.394 984.322 342.091 C 983.972 342.628 983.357 342.971 982.49 343.115 C 969.051 345.344 972.781 325.939 972.627 318.721 C 972.605 318.182 972.331 317.88 971.783 317.814 Z M 590.972 339.27 L 588.764 341.459 C 588.343 341.893 587.85 342.222 587.285 342.445 C 576.498 346.705 568.254 333.926 577.601 327.616 C 580.816 325.426 586.673 325.013 591.012 324.125 C 591.736 323.98 592.031 323.539 591.899 322.803 C 590.519 314.955 583.657 316.078 578.173 319.511 C 577.503 319.919 577.029 319.752 576.755 319.016 C 576.058 317.045 576.781 315.566 578.923 314.58 C 585.918 311.41 591.564 312.574 595.863 318.07 C 596.12 318.401 596.26 318.812 596.257 319.234 L 596.612 341.341 C 596.624 342.22 596.095 343.016 595.277 343.344 C 594.459 343.671 593.526 343.462 592.924 342.82 C 592.176 342.005 591.899 341.012 592.097 339.843 C 592.131 339.562 591.988 339.29 591.736 339.161 C 591.486 339.033 591.18 339.077 590.972 339.27 Z M 581.823 339.132 C 588.428 340.454 592.313 335.208 592.155 329.35 C 592.13 328.548 591.722 328.161 590.933 328.186 C 585.273 328.364 575.867 329.607 579.218 337.062 C 579.701 338.126 580.671 338.897 581.823 339.132 Z M 660.318 330.722 C 660.235 337.681 654.525 343.255 647.565 343.169 L 645.199 343.139 C 641.857 343.098 638.667 341.731 636.334 339.339 C 633.999 336.948 632.711 333.727 632.752 330.384 L 632.81 325.493 C 632.897 318.533 638.609 312.964 645.565 313.05 L 647.932 313.077 C 654.89 313.162 660.465 318.871 660.379 325.831 L 660.321 330.722 L 660.318 330.722 Z M 646.782 339.586 C 649.289 339.563 651.68 338.34 653.435 336.184 C 655.187 334.026 656.158 331.114 656.129 328.084 C 656.074 321.779 651.8 316.703 646.586 316.748 C 644.08 316.772 641.686 317.994 639.935 320.152 C 638.181 322.308 637.212 325.221 637.238 328.251 C 637.292 334.555 641.567 339.631 646.782 339.586 Z M 672.952 317.775 C 690.483 299.848 703.736 333.767 685.908 342.544 C 681.479 344.739 677.402 343.846 673.681 339.862 C 672.854 338.98 672.438 339.146 672.438 340.355 L 672.438 354.436 C 672.438 355.25 672.024 355.659 671.197 355.659 L 669.007 355.659 C 668.272 355.659 667.903 355.289 667.903 354.553 L 667.922 315.092 C 667.922 314.199 668.371 313.752 669.264 313.752 L 671.433 313.752 C 671.794 313.752 672.133 313.926 672.345 314.219 C 672.555 314.51 672.611 314.888 672.498 315.231 L 671.907 317.164 C 671.813 317.435 671.921 317.731 672.172 317.876 C 672.424 318.023 672.746 317.982 672.952 317.775 Z M 680.185 339.525 C 682.483 339.669 684.76 338.613 686.519 336.588 C 688.276 334.565 689.37 331.739 689.559 328.732 C 689.748 325.724 689.018 322.783 687.527 320.555 C 686.036 318.326 683.908 316.994 681.611 316.851 C 676.828 316.55 672.634 321.381 672.239 327.643 C 672.049 330.65 672.781 333.591 674.272 335.82 C 675.763 338.047 677.891 339.381 680.186 339.525 L 680.185 339.525 Z M 864.677 339.586 C 849.768 351.477 841.629 335.129 844.995 322.151 C 847.244 313.456 858.149 309.749 864.699 316.571 C 865.368 317.267 865.708 317.129 865.708 316.157 L 865.708 314.58 C 865.708 314.079 865.96 313.823 866.465 313.811 L 868.933 313.732 C 869.701 313.718 870.107 314.099 870.118 314.876 C 870.25 330.277 876.558 364.493 846.817 354.751 C 846.291 354.578 846.027 354.219 846.005 353.666 L 845.917 351.182 C 845.895 350.537 846.191 350.289 846.817 350.432 C 856.043 352.503 866.608 354.375 865.445 339.921 C 865.412 339.315 865.159 339.203 864.677 339.586 Z M 856.569 339.428 C 858.873 339.563 861.122 338.501 862.878 336.476 C 864.622 334.448 865.708 331.622 865.884 328.621 C 866.246 322.37 862.691 317.073 857.919 316.789 C 855.626 316.653 853.355 317.714 851.611 319.741 C 849.857 321.768 848.78 324.594 848.605 327.595 C 848.232 333.846 851.797 339.144 856.569 339.428 Z M 957.696 331.915 C 952.858 329.764 942.776 326.452 946.024 318.958 C 948.69 312.824 956.457 311.918 962.172 314.028 C 962.951 314.319 963.324 314.869 963.324 315.684 L 963.324 317.677 C 963.324 318.622 962.907 318.866 962.085 318.405 C 958.783 316.571 952.452 315.409 950.346 319.589 C 947.329 325.505 961.372 326.491 963.402 331.756 C 968.821 345.659 941.987 346.469 945.278 337.89 C 945.519 337.273 945.914 337.134 946.474 337.475 C 949.743 339.462 953.264 339.986 957.071 339.054 C 958.651 338.667 959.792 337.323 959.945 335.709 C 960.077 334.096 959.177 332.571 957.696 331.915 Z M 1042.55 317.598 L 1044.96 315.171 C 1045.48 314.673 1046.07 314.284 1046.73 314.008 C 1064.12 307.046 1061.15 333.452 1060.85 341.577 C 1060.82 342.42 1060.39 342.839 1059.54 342.839 L 1057.02 342.839 C 1056.39 342.839 1056.05 342.511 1056.03 341.854 C 1055.97 335.543 1057.56 323.238 1053.83 318.189 C 1053.46 317.68 1052.89 317.322 1052.26 317.183 C 1039.64 314.442 1042.55 335.051 1042.75 341.656 C 1042.8 342.445 1042.4 342.839 1041.61 342.839 L 1039.24 342.839 C 1038.38 342.839 1038 342.412 1038.06 341.557 C 1038.46 336.135 1041.06 311.8 1028.69 317.458 C 1023.27 319.944 1024.21 334.32 1024.64 341.577 C 1024.67 341.905 1024.57 342.227 1024.33 342.466 C 1024.12 342.706 1023.8 342.839 1023.47 342.839 L 1021 342.839 C 1020.36 342.839 1020.01 342.511 1020.01 341.854 L 1020.01 314.914 C 1020.01 314.048 1020.45 313.646 1021.32 313.712 L 1023.72 313.89 C 1024.54 313.955 1024.87 314.389 1024.75 315.191 L 1024.5 316.847 C 1024.33 317.899 1024.64 318.065 1025.44 317.341 C 1030.5 312.666 1036.5 310.28 1041.1 317.439 C 1041.52 318.096 1042.01 318.149 1042.55 317.598 Z M 434.173 317.183 L 436.322 314.935 C 436.784 314.448 437.328 314.12 437.96 313.948 C 455.728 309.137 452.237 329.942 451.961 341.913 C 451.949 342.529 451.634 342.839 451.014 342.839 L 448.667 342.839 C 447.907 342.839 447.503 342.457 447.465 341.697 C 447.176 335.477 447.006 329.292 446.953 323.139 C 446.854 313.476 434.291 315.979 433.089 323.986 C 432.656 326.892 432.615 332.768 432.971 341.617 C 433.009 342.432 432.624 342.839 431.807 342.839 L 429.617 342.839 C 428.803 342.839 428.395 342.425 428.395 341.598 L 428.395 315.724 C 428.406 314.586 429.265 313.627 430.392 313.497 C 431.522 313.365 432.565 314.103 432.813 315.21 C 432.866 315.473 432.872 315.934 432.831 316.592 C 432.803 316.916 432.983 317.22 433.284 317.352 C 433.583 317.487 433.94 317.418 434.173 317.183 Z M 521.142 341.261 C 499.369 353.764 491.285 317.203 510.196 313.496 C 519.879 311.582 524.219 318.306 524.77 327.123 C 524.877 328.871 524.054 329.719 522.304 329.665 L 505.68 329.133 C 505.01 329.12 504.669 329.449 504.656 330.119 C 504.557 339.723 514.516 341.617 521.181 337.179 C 521.825 336.746 522.254 336.91 522.463 337.674 C 522.837 339.033 522.443 340.512 521.142 341.261 Z M 505.542 325.624 L 518.558 325.584 C 519.148 325.584 519.623 325.107 519.623 324.519 L 519.623 324.183 C 519.619 322.221 518.841 320.337 517.46 318.954 C 516.078 317.569 514.211 316.798 512.266 316.809 L 511.754 316.809 C 507.722 316.83 504.467 320.147 504.478 324.224 L 504.478 324.558 C 504.478 325.146 504.954 325.624 505.542 325.624 Z M 536.444 318.917 C 537.853 315.434 540.508 313.469 544.412 313.022 C 545.068 312.947 545.675 313.381 545.812 314.028 L 546.385 316.946 C 546.569 317.88 546.207 318.202 545.3 317.912 C 533.841 314.265 535.479 334.32 536.208 341.794 C 536.274 342.491 535.959 342.839 535.262 342.839 L 532.679 342.839 C 531.85 342.839 531.436 342.425 531.436 341.598 L 531.436 314.738 C 531.436 314.08 531.765 313.752 532.422 313.752 L 534.769 313.752 C 535.124 313.748 535.46 313.898 535.695 314.163 C 535.931 314.427 536.037 314.781 535.992 315.133 L 535.576 318.701 C 535.562 318.922 535.705 319.124 535.92 319.176 C 536.135 319.23 536.356 319.123 536.444 318.917 Z M 562.259 331.973 C 557.96 330.061 552.123 328.148 550.309 323.73 C 546.641 314.639 560.208 312.055 566.735 314.087 C 567.445 314.31 567.755 314.797 567.663 315.546 L 567.327 318.209 C 567.25 318.813 566.967 318.938 566.478 318.583 C 562.879 316.033 559.329 316.005 555.83 318.504 C 554.842 319.214 554.312 320.4 554.437 321.61 C 554.564 322.82 555.329 323.87 556.441 324.361 C 560.741 326.253 567.189 328.405 568.609 333.057 C 572.08 344.378 548.12 347.375 549.599 337.929 C 549.731 337.101 550.165 336.896 550.9 337.318 C 553.977 339.112 561.372 341.065 563.838 337.299 C 564.653 336.048 564.548 334.635 563.521 333.057 C 563.214 332.581 562.776 332.206 562.259 331.973 Z M 704.544 330.533 C 705.096 339.251 714.227 341.872 720.755 337.357 C 721.519 336.898 722.505 337.084 723.051 337.789 C 723.594 338.496 723.522 339.497 722.884 340.119 C 713.654 348.026 701.684 342.13 699.634 331.481 C 695.965 312.43 723.811 303.299 724.699 327.99 C 724.716 328.393 724.564 328.782 724.283 329.074 C 723.999 329.364 723.608 329.528 723.2 329.528 L 705.47 329.528 C 704.814 329.528 704.505 329.863 704.544 330.533 Z M 705.944 325.624 L 718.841 325.229 C 719.082 325.219 719.309 325.112 719.473 324.935 C 719.634 324.757 719.721 324.522 719.709 324.282 L 719.709 323.967 C 719.651 322.052 718.817 320.239 717.402 318.929 C 715.987 317.621 714.099 316.921 712.156 316.987 L 712.077 316.987 C 710.138 317.049 708.301 317.869 706.974 319.267 C 705.647 320.665 704.934 322.526 704.997 324.44 L 704.997 324.756 C 705.008 324.996 705.115 325.223 705.292 325.387 C 705.469 325.549 705.703 325.634 705.944 325.624 Z M 736.767 318.209 C 738.281 315.422 740.602 313.633 743.729 312.844 C 744.206 312.72 744.713 312.791 745.135 313.044 C 745.559 313.295 745.861 313.706 745.977 314.186 L 746.51 316.355 C 746.746 317.315 746.371 317.74 745.386 317.636 C 733.296 316.177 735.919 332.25 736.097 341.656 C 736.11 342.445 735.722 342.839 734.933 342.839 L 732.35 342.839 C 731.522 342.839 731.108 342.432 731.108 341.617 L 731.108 314.975 C 731.108 314.161 731.522 313.752 732.35 313.752 L 734.755 313.752 C 735.927 313.752 736.373 314.319 736.097 315.447 L 735.525 317.735 C 735.449 318.062 735.625 318.396 735.939 318.516 C 736.255 318.637 736.608 318.504 736.767 318.209 Z M 765.934 339.862 C 755.364 349.98 742.88 336.075 752.327 328.088 C 755.64 325.288 761.675 324.952 766.172 324.125 C 766.792 324.006 767.072 323.631 767.02 323.001 C 766.21 314.797 758.342 315.96 753.55 319.333 C 753.037 319.702 752.598 319.635 752.228 319.136 C 751.074 317.598 751.217 316.394 752.661 315.526 C 760.629 310.774 771.279 312.115 771.476 323.394 C 771.584 329.548 771.588 335.707 771.496 341.872 C 771.485 342.518 771.155 342.839 770.51 342.839 L 768.085 342.839 C 767.428 342.839 767.098 342.511 767.098 341.854 L 767.098 340.355 C 767.098 339.29 766.712 339.125 765.934 339.862 Z M 753.925 334.439 C 753.767 343.036 768.123 340.276 766.999 328.996 C 766.934 328.405 766.605 328.128 766.013 328.168 C 761.339 328.425 754.043 329.153 753.925 334.439 Z M 817.679 317.261 L 818.118 317.696 C 818.183 317.756 818.26 317.786 818.348 317.782 C 818.436 317.779 818.512 317.739 818.567 317.677 C 823.186 312.253 831.875 311.01 835.55 317.282 C 838.435 322.212 837.031 334.99 837.36 341.598 C 837.415 342.425 837.02 342.839 836.175 342.839 L 834.058 342.839 C 833.158 342.839 832.708 342.392 832.687 341.499 C 832.632 334.755 834.65 322.449 829.395 317.657 C 828.945 317.234 828.342 316.978 827.717 316.926 C 814.881 315.724 817.832 334.478 817.898 341.814 C 817.898 342.499 817.569 342.839 816.889 342.839 L 814.431 342.839 C 813.762 342.839 813.444 342.511 813.444 341.854 L 813.444 314.757 C 813.444 314.15 813.751 313.583 814.256 313.254 C 814.782 312.923 815.419 312.874 815.978 313.121 C 817.953 313.988 818.502 315.171 817.624 316.669 C 817.492 316.881 817.514 317.079 817.679 317.261 Z M 896.645 327.182 C 892.312 324.164 892.762 318.583 896.821 315.546 C 900.507 312.799 904.873 312.292 909.921 314.028 C 910.676 314.278 911.06 314.802 911.06 315.604 L 911.06 317.715 C 911.06 318.622 910.665 318.846 909.876 318.386 C 906.2 316.177 902.635 316.198 899.201 318.446 C 898.181 319.112 897.61 320.277 897.698 321.489 C 897.797 322.697 898.543 323.761 899.651 324.262 C 903.293 325.919 909.623 328.107 911.422 331.5 C 918.4 344.654 889.986 347.138 893.54 337.948 C 893.739 337.397 894.1 337.273 894.615 337.574 C 898.038 339.56 901.681 339.98 905.564 338.836 C 906.2 338.636 906.738 338.182 907.056 337.574 C 910.106 331.738 900.112 329.607 896.645 327.182 Z" style="stroke-width: 1px;"/><path fill="#6d6e70" d="M 1009.35 341.459 C 985.408 354.002 980.757 312.115 1001.7 313.239 C 1008.84 313.62 1012.73 318.135 1013.31 326.787 C 1013.47 328.772 1012.54 329.731 1010.53 329.665 L 994.261 329.133 C 993.603 329.108 993.274 329.429 993.274 330.1 C 993.318 339.98 1002.64 341.4 1009.72 337.16 C 1010.34 336.779 1010.78 336.938 1011 337.633 C 1011.53 339.344 1010.99 340.616 1009.35 341.459 Z M 994.097 325.683 L 1007.99 325.485 C 1008.13 325.485 1008.26 325.427 1008.36 325.33 C 1008.47 325.229 1008.51 325.093 1008.51 324.952 L 1008.49 324.204 C 1008.48 322.25 1007.68 320.392 1006.25 319.031 C 1004.84 317.668 1002.91 316.919 1000.92 316.946 C 996.796 317.001 993.483 320.338 993.559 324.402 L 993.571 325.15 C 993.571 325.291 993.636 325.426 993.724 325.526 C 993.823 325.628 993.965 325.683 994.097 325.683 Z M 413.605 339.685 L 411.18 341.971 C 410.64 342.484 409.996 342.82 409.247 342.978 C 391.458 346.626 395.363 325.268 395.284 315.231 C 395.284 314.245 395.777 313.752 396.763 313.752 L 398.38 313.752 C 399.165 313.752 399.8 314.387 399.8 315.171 C 399.8 320.536 398.676 331.382 400.786 335.938 C 402.976 340.65 410.429 340.393 413.209 335.957 C 415.774 331.875 414.63 320.239 414.571 315.21 C 414.567 314.826 414.716 314.455 414.986 314.179 C 415.257 313.906 415.626 313.752 416.01 313.752 L 418.062 313.752 C 418.72 313.752 419.047 314.08 419.047 314.738 L 419.224 341.42 C 419.224 342.111 418.876 342.759 418.296 343.135 C 417.716 343.51 416.989 343.564 416.365 343.273 C 414.945 342.616 414.369 341.611 414.63 340.256 C 414.881 338.994 414.539 338.803 413.605 339.685 Z" style="stroke-width: 1px;"/><rect width="4.891" height="29.028" x="-2.445" y="-14.515" fill="#6d6e70" rx="0.48" transform="matrix(0.999986, 0.005236, -0.005236, 0.999986, 462.938049, 328.29541)" style="stroke-width: 1px;"/><path fill="#6d6e70" d="M 483.119 336.825 C 483.164 336.968 483.297 337.07 483.45 337.073 C 483.599 337.077 483.737 336.986 483.791 336.844 C 486.473 329.772 489.063 322.567 491.561 315.231 C 492.232 313.298 493.698 312.936 495.958 314.146 C 496.432 314.382 496.569 314.752 496.373 315.25 L 486.039 341.38 C 485.602 342.494 484.524 343.222 483.328 343.208 C 482.132 343.194 481.067 342.443 480.655 341.322 L 470.795 315.054 C 470.479 314.186 470.783 313.752 471.701 313.752 L 473.99 313.752 C 474.857 313.752 475.437 314.166 475.724 314.993 L 483.119 336.825 Z" style="stroke-width: 1px;"/><rect width="4.891" height="29.069" x="-2.445" y="-14.534" fill="#6d6e70" rx="0.49" transform="matrix(0.999994, 0.003491, -0.003491, 0.999994, 802.103271, 328.29541)" style="stroke-width: 1px;"/><path fill="#6d6e70" d="M 928.131 336.372 C 928.229 336.613 928.438 336.778 928.712 336.778 C 928.964 336.778 929.195 336.613 929.272 336.372 L 936.929 314.955 C 937.214 314.153 937.774 313.752 938.63 313.752 L 940.725 313.752 C 941.592 313.752 941.866 314.153 941.548 314.955 C 935.009 332.111 930.391 343.832 927.725 350.117 C 925.937 354.337 922.492 356.349 917.412 356.152 C 917.127 356.142 916.864 355.964 916.765 355.697 L 915.954 353.666 C 915.68 352.995 915.898 352.595 916.601 352.463 L 921.175 351.654 C 922.009 351.497 922.59 351.037 922.931 350.274 L 925.893 343.609 C 926.2 342.924 926.211 342.228 925.948 341.519 L 915.657 315.073 C 915.317 314.191 915.613 313.752 916.568 313.752 L 918.948 313.752 C 919.782 313.752 920.331 314.141 920.594 314.914 L 928.131 336.372 Z" style="stroke-width: 1px;"/></svg>