<?xml version="1.0" encoding="UTF-8" standalone="no"?>
<svg
   width="158"
   height="41"
   viewBox="0 0 157.99709 41.000852"
   version="1.1"
   id="svg2063"
   sodipodi:docname="Debian-OpenLogo-Horizontal.svg"
   inkscape:version="1.2.2 (b0a8486541, 2022-12-01)"
   xmlns:inkscape="http://www.inkscape.org/namespaces/inkscape"
   xmlns:sodipodi="http://sodipodi.sourceforge.net/DTD/sodipodi-0.dtd"
   xmlns="http://www.w3.org/2000/svg"
   xmlns:svg="http://www.w3.org/2000/svg">
  <defs
     id="defs2067" />
  <sodipodi:namedview
     id="namedview2065"
     pagecolor="#ffffff"
     bordercolor="#000000"
     borderopacity="0.25"
     inkscape:showpageshadow="2"
     inkscape:pageopacity="0.0"
     inkscape:pagecheckerboard="0"
     inkscape:deskcolor="#d1d1d1"
     showgrid="false"
     inkscape:zoom="1.2559449"
     inkscape:cx="-70.464877"
     inkscape:cy="-67.280024"
     inkscape:window-width="1366"
     inkscape:window-height="675"
     inkscape:window-x="0"
     inkscape:window-y="28"
     inkscape:window-maximized="1"
     inkscape:current-layer="svg2063" />
  <path
     fill="#d70751"
     d="m 19.539771,22.551742 c -0.612633,0.0082 0.115228,0.314928 0.91526,0.438357 0.221844,-0.173046 0.421134,-0.346913 0.599921,-0.516678 -0.497406,0.121788 -1.004243,0.124658 -1.515181,0.07832 m 3.287471,-0.819715 c 0.366186,-0.503966 0.631906,-1.05509 0.725811,-1.625077 -0.08242,0.405962 -0.301806,0.756565 -0.510118,1.127262 -1.145304,0.7213 -0.108256,-0.428105 -8.19e-4,-0.865642 -1.231008,1.551266 -0.169766,0.930022 -0.214873,1.363457 m 1.215015,-3.159121 c 0.07463,-1.103478 -0.216923,-0.754104 -0.314928,-0.333791 0.113998,0.05987 0.204621,0.778299 0.314928,0.333791 M 17.215538,3.4912177 c 0.32723,0.058229 0.706947,0.1033356 0.652409,0.1816575 0.359215,-0.079142 0.439997,-0.1504929 -0.652409,-0.1816575 m 0.652819,0.1816575 -0.230045,0.047975 0.214463,-0.019684 0.01558,-0.028296"
     id="path2053"
     style="stroke-width:0.410063" />
  <path
     fill="#d70751"
     d="m 28.0662,18.99117 c 0.0369,0.990711 -0.289094,1.472125 -0.583929,2.323414 l -0.530211,0.26367 c -0.433435,0.842269 0.04305,0.534722 -0.26736,1.204354 -0.677423,0.601561 -2.052773,1.881776 -2.49318,1.999054 -0.321899,-0.007 0.217743,-0.379718 0.288274,-0.52529 -0.905828,0.621655 -0.727041,0.933302 -2.112642,1.31179 l -0.04019,-0.09062 c -3.41582,1.607445 -8.161063,-1.57751 -8.098734,-5.922532 -0.03608,0.275562 -0.103745,0.206671 -0.179197,0.317388 -0.176327,-2.23525 1.032537,-4.480342 3.071368,-5.398472 1.994133,-0.98661 4.3319,-0.582289 5.759327,0.750004 -0.78404,-1.027616 -2.345967,-2.117153 -4.195759,-2.016277 -1.812886,0.02952 -3.509315,1.18139 -4.075201,2.432491 -0.928381,0.584339 -1.036638,2.253703 -1.440959,2.55961 -0.544973,4.002209 1.023926,5.730622 3.67826,7.764942 0.416623,0.281303 0.117278,0.32436 0.173046,0.538412 -0.881634,-0.412523 -1.688637,-1.035818 -2.352938,-1.798944 0.352654,0.515449 0.732782,1.016545 1.224446,1.410205 -0.832016,-0.280893 -1.942875,-2.014637 -2.266415,-2.085168 1.433169,2.566171 5.813866,4.500436 8.108985,3.54048 -1.062062,0.03937 -2.410757,0.02173 -3.603219,-0.419084 -0.502326,-0.25793 -1.18262,-0.791421 -1.060831,-0.891066 3.131237,1.169088 6.364989,0.884915 9.073862,-1.286366 0.689725,-0.537181 1.4426,-1.450391 1.660343,-1.462693 -0.327641,0.492896 0.05618,0.237016 -0.1956,0.672093 0.685624,-1.107579 -0.298936,-0.451069 0.709408,-1.912531 l 0.372336,0.512578 c -0.139421,-0.920181 1.142025,-2.036371 1.011625,-3.490452 0.294015,-0.444508 0.32764,0.478953 0.01599,1.501649 0.432616,-1.134643 0.114408,-1.317121 0.225125,-2.253704 0.119327,0.314928 0.278022,0.649129 0.358804,0.98169 -0.282123,-1.096917 0.288274,-1.846511 0.430156,-2.484158 -0.140242,-0.06151 -0.435077,0.484693 -0.503147,-0.810284 0.01025,-0.562606 0.157054,-0.294835 0.213232,-0.433436 -0.109896,-0.06356 -0.39981,-0.494945 -0.575727,-1.322041 0.126709,-0.19478 0.341172,0.503967 0.515038,0.532261 -0.111942,-0.657334 -0.304261,-1.158841 -0.312463,-1.663628 -0.508477,-1.062062 -0.180017,0.141882 -0.59172,-0.455989 -0.541282,-1.686998 0.448609,-0.39161 0.515859,-1.157607 0.819305,1.187131 1.286366,3.028312 1.501649,3.790618 -0.164025,-0.929611 -0.428516,-1.830519 -0.752055,-2.701902 0.249728,0.105386 -0.401451,-1.912121 0.32436,-0.576138 C 30.291609,9.3916074 27.753732,6.7303021 25.418427,5.4820718 25.70342,5.7432816 26.063865,6.0713314 25.935106,6.1229995 24.772989,5.4320443 24.9772,5.3775062 24.810714,5.0855414 23.865521,4.7004929 23.802371,5.1171152 23.177025,5.0863607 21.393254,4.1399364 21.049621,4.2404019 19.408141,3.6482717 l 0.07463,0.349373 c -1.18139,-0.3936597 -1.37658,0.1484426 -2.653104,8.194e-4 -0.0775,-0.060279 0.409242,-0.2197938 0.810283,-0.2776122 -1.142434,0.150903 -1.089125,-0.2255346 -2.206956,0.041416 C 15.708146,3.5691284 16.00011,3.4407791 16.293715,3.276754 15.362463,3.333342 14.069536,3.8188563 14.468527,3.3768093 12.949246,4.0550525 10.250625,5.0068073 8.7362642,6.4268539 L 8.6887007,6.108645 C 7.994875,6.9414818 5.6628497,8.5960838 5.4770916,9.6757783 L 5.291333,9.7188326 C 4.9308882,10.330235 4.6967428,11.022831 4.4105192,11.651456 3.9385371,12.45641 3.7183336,11.961464 3.7855837,12.087764 2.8567923,13.97077 2.394652,15.552792 1.9964815,16.851049 c 0.2837631,0.424415 0.00697,2.55551 0.1139972,4.260959 -0.4658308,8.424323 5.9122806,16.603019 12.8841623,18.490944 1.021875,0.366185 2.541157,0.353066 3.833674,0.389151 -1.524612,-0.436307 -1.721443,-0.230863 -3.207509,-0.748772 -1.071493,-0.5052 -1.306049,-1.081336 -2.065484,-1.740307 l 0.300575,0.531032 c -1.488526,-0.526931 -0.865642,-0.652 -2.076966,-1.035408 l 0.321079,-0.418674 c -0.482643,-0.0369 -1.278165,-0.812744 -1.495498,-1.243719 l -0.52816,0.02091 C 9.4423952,34.575588 9.1040939,34.010932 9.1291076,33.573396 L 8.9585214,33.877662 C 8.765382,33.545921 6.6248563,30.942435 7.7353052,31.548507 7.5290437,31.360699 7.2547122,31.24219 6.9574169,30.701318 L 7.1833611,30.443389 C 6.64987,29.755714 6.2000315,28.87449 6.2344768,28.580885 c 0.2849931,0.384639 0.4826433,0.45681 0.6786534,0.52283 -1.3495155,-3.34775 -1.425377,-0.184118 -2.4468428,-3.407619 l 0.2156932,-0.01722 C 4.516724,25.428331 4.4154382,25.158099 4.2825781,24.891969 l 0.094315,-0.936993 C 3.4058644,22.833045 4.1054314,19.179799 4.2460825,17.176644 4.3424474,16.36226 5.0567761,15.494978 5.5992886,14.134801 L 5.2687783,14.078212 C 5.9010945,12.975964 8.8781478,9.6499467 10.257598,9.8205329 10.92559,8.9815448 10.124738,9.8172555 9.9939277,9.6064803 11.461541,8.0880191 11.922862,8.5337565 12.913163,8.2602449 13.980555,7.6266986 11.996673,8.507923 12.50269,8.0187182 c 1.846511,-0.4711618 1.308099,-1.071903 3.716396,-1.3109698 0.254239,0.144342 -0.58926,0.2230741 -0.800852,0.4104728 1.537734,-0.7528747 4.867031,-0.5810585 7.030521,0.4174435 2.508352,1.1731888 5.328351,4.6394473 5.439888,7.9006743 l 0.126709,0.03404 c -0.06397,1.296618 0.19847,2.796216 -0.257109,4.173206 L 28.0662,18.991172"
     id="path2055"
     style="stroke-width:0.410063" />
  <path
     fill="#d70751"
     d="m 12.851243,23.392371 -0.08652,0.429335 c 0.403091,0.547433 0.72294,1.140383 1.236748,1.566848 -0.369876,-0.7213 -0.644208,-1.019415 -1.150225,-1.996183 m 0.951755,-0.03691 c -0.213232,-0.236196 -0.338712,-0.519959 -0.480593,-0.802082 0.13532,0.496586 0.412522,0.923461 0.669632,1.358127 l -0.189039,-0.556045 m 16.847006,-3.661857 -0.0898,0.226354 c -0.164845,1.171958 -0.52201,2.331615 -1.068213,3.407209 0.603612,-1.134643 0.992762,-2.375902 1.158017,-3.633563 M 17.337326,3.1972041 c 0.413753,-0.1513132 1.017775,-0.083243 1.458182,-0.182888 -0.573267,0.047975 -1.143664,0.076682 -1.70668,0.1484426 l 0.248498,0.034446 M 2.7920012,10.931802 C 2.8875458,11.815076 2.1276999,12.158299 2.960127,11.57519 3.4070949,10.568897 2.7862605,11.297577 2.7920012,10.931802 m -0.979229,4.089963 C 2.0050914,14.432506 2.0395367,14.079032 2.1129377,13.73745 1.582727,14.415693 1.8685404,14.560445 1.8127722,15.021765"
     id="path2057"
     style="stroke-width:0.410063" />
  <path
     d="m 52.22728,19.631434 c -0.04871,0.05087 -0.04871,8.124272 -0.149367,10.231643 -0.09958,1.70365 -0.251111,5.365303 -3.861891,5.365303 -3.711456,0 -4.61415,-4.263449 -4.915048,-6.117551 -0.35069,-2.056499 -0.35069,-3.763406 -0.35069,-4.513485 0,-2.408274 0.150451,-9.13087 5.817746,-9.13087 1.705813,0 2.658295,0.503301 3.410542,0.902699 l 0.04871,3.268753 z m -14.543807,5.92057 c 0,14.142234 7.523553,14.142234 8.626486,14.142234 3.109654,0 5.116366,-1.705814 5.968193,-4.663928 l 0.100659,4.462604 c 0.953566,-0.05087 1.906053,-0.150446 3.460335,-0.150446 0.552009,0 1.002274,0 1.404916,0.05087 0.401557,0 0.802035,0.0487 1.25338,0.09957 -0.802035,-1.60407 -1.403832,-5.214851 -1.403832,-13.041464 0,-7.623136 0,-20.5119858 0.651589,-24.4247502 -1.804309,0.8539865 -3.360756,1.4059953 -6.771303,1.7058138 1.354043,1.454703 1.354043,2.2069506 1.354043,8.8256344 -0.951402,-0.299814 -2.156078,-0.651584 -4.212577,-0.651584 -8.977186,0 -10.431889,7.825529 -10.431889,13.648684 m 27.199952,-2.568471 c 0.05087,-4.162791 0.903779,-7.874237 4.463698,-7.874237 3.912769,0 4.211499,4.312158 4.111924,7.874237 z m 13.540443,0.497888 c 0,-5.868604 -1.152731,-11.637634 -8.575608,-11.637634 -10.230563,0 -10.230563,11.337821 -10.230563,13.742856 0,10.180761 4.563273,14.193105 12.237275,14.193105 3.408384,0 5.06548,-0.498973 5.968179,-0.752247 -0.04979,-1.805394 0.200239,-2.959198 0.503301,-4.513481 -1.055315,0.653752 -2.409344,1.505575 -5.41833,1.505575 -7.824458,0 -7.925117,-7.124153 -7.925117,-9.58113 h 13.343447 l 0.09742,-2.9657 m 16.316738,2.173406 c 0,4.663927 -0.851823,10.934093 -6.669565,10.934093 -0.803119,0 -1.805393,-0.152615 -2.456981,-0.301982 -0.10066,-1.805393 -0.10066,-4.915038 -0.10066,-8.52582 0,-4.314336 0.450266,-6.567826 0.80312,-7.674007 1.052066,-3.559915 3.409463,-3.608618 3.859733,-3.608618 3.812105,0 4.564353,5.260311 4.564353,9.178498 z m -14.393359,5.465962 c 0,3.712526 0,5.817737 -0.601806,7.421807 2.056509,0.80312 4.61307,1.253385 7.674017,1.253385 1.95584,0 7.62313,0 10.681908,-6.268002 1.454703,-2.909406 1.95584,-6.822171 1.95584,-9.781379 0,-1.805393 -0.201318,-5.766865 -1.654942,-8.275793 -1.402755,-2.355233 -3.660578,-3.55991 -6.066688,-3.55991 -4.815463,0 -6.219299,4.012345 -6.970467,6.068844 0,-2.557636 0.04871,-11.4850189 0.449186,-16.0493668 -3.259012,1.5055749 -5.266813,1.7545215 -7.421822,1.95584 1.955854,0.8009554 1.955854,4.1140876 1.955854,14.8977308 v 12.335771 m 29.350619,8.378616 c -1.00444,-0.150446 -1.70798,-0.25111 -3.16268,-0.25111 -1.60191,0 -2.70809,0.101743 -3.85973,0.25111 0.50114,-0.953566 0.70137,-1.405995 0.85183,-4.663927 0.20131,-4.464773 0.2511,-16.40223 -0.0996,-18.910079 -0.25111,-1.907137 -0.70138,-2.206951 -1.40383,-2.708088 4.11191,-0.401562 5.26572,-0.701375 7.17069,-1.604075 -0.3994,2.204787 -0.45243,3.310969 -0.45243,6.669561 -0.0985,17.296268 -0.14937,19.157945 0.95573,21.214444 m 16.06019,-14.198527 c -0.0996,3.160526 -0.15045,5.367477 -1.00444,7.121998 -1.05314,2.257822 -2.80766,2.909411 -4.11192,2.909411 -3.01223,0 -3.66165,-2.506769 -3.66165,-4.963746 0,-4.71372 4.21366,-5.067663 6.11755,-5.067663 z m -13.79371,6.169516 c 0,3.160517 0.95357,6.31887 3.76339,7.673993 1.25339,0.552009 2.50677,0.552009 2.90941,0.552009 4.61522,0 6.16843,-3.411628 7.12199,-5.517919 -0.0509,2.206951 0,3.559915 0.15045,5.3166 0.9027,-0.05087 1.80539,-0.150451 3.31097,-0.150451 0.85183,0 1.65494,0.09958 2.50677,0.150451 -0.55201,-0.851827 -0.85183,-1.355128 -1.00444,-3.310968 -0.0996,-1.904968 -0.0996,-3.81102 -0.0996,-6.469321 l 0.0509,-10.231643 c 0,-3.813189 -1.00444,-7.574418 -8.52799,-7.574418 -4.96374,0 -7.87206,1.505575 -9.32677,2.257818 0.60288,1.104018 1.10402,2.05434 1.55429,4.213662 1.958,-1.705813 4.51564,-2.608508 7.12198,-2.608508 4.16496,0 4.16496,2.75896 4.16496,6.66956 -0.95357,-0.04871 -1.75669,-0.148287 -3.11182,-0.148287 -6.3719,0.01084 -10.58448,2.467801 -10.58448,9.189327 m 42.67887,3.051196 c 0.0509,1.705814 0.0509,3.511207 0.75225,4.96591 -1.1051,-0.09958 -1.75669,-0.25111 -3.81102,-0.25111 -1.20468,0 -1.85626,0.101743 -2.80983,0.25111 0.19915,-0.651583 0.30198,-0.902694 0.40156,-1.756685 0.15045,-1.151641 0.25111,-5.014613 0.25111,-6.369741 v -5.416175 c 0,-2.357412 0,-5.769039 -0.15262,-6.971552 -0.0996,-0.851822 -0.34852,-3.158353 -3.26009,-3.158353 -2.85853,0 -3.81102,2.105212 -4.16278,3.811026 -0.39939,1.754516 -0.39939,3.661653 -0.39939,11.083465 0.0487,6.420618 0.0487,7.02025 0.54984,8.776936 -0.85182,-0.09958 -1.90497,-0.199159 -3.40946,-0.199159 -1.20467,0 -2.00671,0.04871 -3.0079,0.199159 0.35069,-0.80312 0.55201,-1.204677 0.65159,-4.012344 0.10174,-2.758959 0.30198,-16.301571 -0.15262,-19.509716 -0.24894,-1.958004 -0.75224,-2.408269 -1.30209,-2.909406 4.06321,-0.201323 5.3653,-0.853991 6.62085,-1.503411 v 5.314432 c 0.60072,-1.556447 1.85409,-5.016783 6.87086,-5.016783 6.27016,0 6.31887,4.564354 6.36974,7.572255 v 15.075249"
     id="path2059"
     style="fill:#000000;stroke-width:1.08237"
     inkscape:export-filename="path2059.png"
     inkscape:export-xdpi="47.729958"
     inkscape:export-ydpi="47.729958" />
  <path
     fill="#d70751"
     d="m 109.13369,6.4999511 -4.15413,4.1519699 -4.15197,-4.1519699 4.15197,-4.1519656 4.15413,4.1562985"
     id="path2061"
     style="fill:#d70751;fill-opacity:1;stroke-width:1.08237" />
</svg>
