<?xml version="1.0" encoding="utf-8"?>
<svg xmlns="http://www.w3.org/2000/svg" viewBox="102.844 148.04 164.737 36.112" xmlns:bx="https://boxy-svg.com" width="164.737px" height="36.112px"><defs><bx:export><bx:file format="svg" path="未命名.svg"/></bx:export></defs><g id="svg8" transform="matrix(1, 0, 0, 1, -90.309479, -4.566207)"><path style="opacity: 1; fill: rgb(115, 186, 37); fill-opacity: 1; stroke: none; stroke-width: 13.845px; stroke-miterlimit: 4; stroke-dasharray: none; stroke-opacity: 1;" d="M 211.299 152.891 C 201.45 152.891 193.465 160.876 193.465 170.726 C 193.465 180.575 201.45 188.56 211.299 188.56 C 221.15 188.56 229.134 180.575 229.134 170.726 C 229.134 160.876 221.15 152.891 211.299 152.891 Z M 211.299 155.12 C 215.438 155.12 219.408 156.764 222.334 159.691 C 225.261 162.617 226.905 166.587 226.905 170.726 C 226.905 174.864 225.261 178.834 222.334 181.76 C 219.408 184.687 215.438 186.331 211.299 186.331 C 206.794 186.323 202.511 184.368 199.554 180.97 C 200.679 180.157 202.522 180.364 204.788 180.62 C 205.892 180.749 207.15 180.894 208.452 180.923 C 212.087 180.946 216.002 180.275 218.413 179.219 C 219.975 178.54 220.971 178.089 221.596 177.522 C 221.82 177.336 221.936 177.033 222.058 176.708 L 222.142 176.494 C 222.244 176.23 222.392 175.676 222.457 175.371 C 222.483 175.237 222.514 175.106 222.403 175.021 C 222.302 174.942 222.069 175.083 222.069 175.083 C 221.009 175.72 218.361 176.928 215.884 176.98 C 212.81 177.042 206.581 173.867 205.935 173.532 C 205.504 172.504 205.072 171.475 204.633 170.449 C 209.09 173.385 212.787 175.009 215.617 175.259 C 218.766 175.539 221.222 173.82 222.288 173.105 C 222.427 173.013 222.566 172.909 222.694 172.809 L 222.695 172.809 C 222.718 172.791 222.772 172.744 222.764 172.7 C 222.588 171.597 220.943 166.242 219.698 164.955 C 219.356 164.604 219.08 164.258 218.524 163.932 C 214.019 161.308 203.334 159.723 202.833 159.651 C 202.833 159.651 202.784 159.641 202.748 159.675 C 202.721 159.701 202.716 159.752 202.716 159.752 C 202.716 159.752 202.676 161.966 202.669 162.214 C 202.266 162.078 200.918 161.641 199.014 161.133 C 201.966 157.345 206.498 155.128 211.299 155.12 Z M 214.552 164.173 C 214.628 164.171 214.705 164.173 214.781 164.175 C 217.299 164.265 219.279 166.391 219.193 168.907 C 219.145 170.128 218.634 171.26 217.743 172.088 C 216.851 172.928 215.689 173.359 214.461 173.317 C 211.946 173.225 209.968 171.103 210.053 168.584 C 210.098 167.364 210.609 166.231 211.501 165.4 C 212.339 164.619 213.415 164.191 214.552 164.173 Z M 214.583 165.52 C 213.787 165.53 213.039 165.829 212.459 166.373 C 211.84 166.954 211.475 167.741 211.449 168.592 C 211.39 170.352 212.767 171.833 214.524 171.897 C 215.377 171.923 216.191 171.621 216.814 171.041 C 217.436 170.458 217.794 169.671 217.822 168.823 C 217.88 167.063 216.502 165.584 214.742 165.522 C 214.689 165.52 214.635 165.519 214.583 165.52 Z M 215.264 167.122 C 216.046 167.122 216.68 167.543 216.68 168.066 C 216.68 168.585 216.046 169.008 215.264 169.008 C 214.482 169.008 213.851 168.585 213.851 168.066 C 213.851 167.543 214.482 167.122 215.264 167.122 Z" id="path820-3-6"/><circle style="opacity: 0.3; fill: rgb(255, 255, 255); fill-opacity: 1; stroke: none; stroke-width: 3.088px; stroke-miterlimit: 4; stroke-dasharray: none; stroke-opacity: 1;" id="path872" cx="787.511" cy="-1078.8"/><g transform="matrix(0.376746, 0, 0, 0.376746, 145.455383, -47.406418)" fill="#73ba25" style=""><path d="m376.84 556.36c-7.7836 0-12.065 6.5805-12.065 11.13v5.8403c0 6.6997 5.4738 10.851 10.55 10.851h17.819c2.2449 0 2.7149 1.4697 2.7149 2.7097v3.769c0 .39988-.081 4.0198-2.7149 4.0198h-24.303c-2.4151 0-4.1602 1.6802-4.1602 3.9795v1.0418c0 2.2905 1.7451 3.9602 4.1602 3.9602h25.624c6.698 0 11.02-4.66 11.02-11.879v-6.3016c0-6.7786-4.8705-9.8093-9.7058-9.8093h-17.533c-2.6395 0-3.8356-1.9801-3.8356-3.3797v-3.4796c0-2.1906 1.4644-3.4604 4.0251-3.4604h19.408c2.38 0 4.1707-1.71 4.1707-3.9707v-1.04c0-2.2695-1.8205-3.9813-4.2513-3.9813h-20.922z"/><path d="m449.7 556.36c-2.301 0-4.1548 1.8696-4.1548 4.1707v29.838c0 2.3905-1.9503 4.311-4.311 4.311h-13.545c-2.3694 0-4.3092-1.9205-4.3092-4.311v-29.838c0-2.3011-1.8696-4.1707-4.1689-4.1707h-1.3101c-2.3344 0-4.1707 1.8416-4.1707 4.1707v30.968c0 7.2101 5.6737 12.44 13.489 12.44h14.485c7.8047 0 13.475-5.2282 13.475-12.44v-30.968c0-2.3291-1.8293-4.1707-4.1602-4.1707h-1.3189z"/><path d="m475.63 556.36c-7.7801 0-12.074 6.5805-12.074 11.13v5.8403c0 6.6997 5.4843 10.851 10.564 10.851h17.814c2.2485 0 2.7203 1.4697 2.7203 2.7097v3.769c0 .39988-.081 4.0198-2.7203 4.0198h-24.314c-2.4045 0-4.1601 1.6802-4.1601 3.9795v1.0418c0 2.2905 1.7556 3.9602 4.1601 3.9602h25.633c6.6998 0 11.041-4.66 11.041-11.879v-6.3016c0-6.7786-4.8845-9.8093-9.7199-9.8093h-17.533c-2.6466 0-3.8392-1.9801-3.8392-3.3797v-3.4796c0-2.1906 1.4645-3.4604 4.0251-3.4604h19.419c2.3747 0 4.1584-1.71 4.1584-3.9707v-1.04c0-2.2695-1.8188-3.9813-4.2601-3.9813h-20.913z"/><path d="m512.55 560.34v39.358c0 2.259 1.7047 3.9602 3.9637 3.9602h31.364c2.4151 0 4.1602-1.6697 4.1602-3.9602v-1.0418c0-2.2993-1.7451-3.9795-4.1602-3.9795h-25.687v-10.02h18.822c2.4098 0 4.1602-1.6907 4.1602-3.9813v-1.04c0-2.3011-1.7504-3.9707-4.1602-3.9707h-18.822v-10.32h24.382c2.4063 0 4.1601-1.6591 4.1601-3.9707v-1.04c0-2.3011-1.7538-3.9815-4.1601-3.9813l-29.968 3e-3c-2.3064 0-4.0549 1.7148-4.0549 3.9843z"/><g transform="matrix(1.7539 0 0 1.7539 -611.6 -134.13)" stroke-width="0"><path d="m491.25 404.37c-2.241 0-4.065 1.744-4.065 3.894v8.461c0 2.184 1.765 3.963 3.929 3.963h5.473c2.164 0 3.929-1.779 3.929-3.963v-8.461c0-2.149-1.825-3.894-4.065-3.894h-5.201zm-1.184 12.019v-7.726c0-.906.744-1.647 1.654-1.647h4.264c.89 0 1.648.758 1.648 1.647v7.726c0 .912-.738 1.653-1.648 1.653h-4.296c-.912 0-1.622-.725-1.622-1.653z"/><path d="m512.91 404.27c-1.578 0-2.768.564-3.723 1.026-.582.279-1.086.52-1.477.52-.177 0-.328-.08-.408-.211l-.364-.696c-.091-.183-.456-.541-.907-.541h-.541c-.52 0-.936.467-.936 1.037v21.461c0 .673.531 1.203 1.203 1.203h.468c.667 0 1.209-.536 1.209-1.203v-7.121c0-.211.137-.439.276-.439.391 0 .895.229 1.477.496.955.439 2.145.98 3.723.98h.505c2.794 0 4.532-1.597 4.532-4.162v-8.192c0-2.526-1.775-4.157-4.532-4.157h-.505zm-5.475 11.952v-7.39c0-1.021.798-1.818 1.818-1.818h3.997c1.021 0 1.818.798 1.818 1.818v7.39c0 1.003-.818 1.818-1.818 1.818h-3.997c-1.001 0-1.818-.815-1.818-1.818z"/><path d="m521.98 408.26v8.398c0 2.178 1.768 4.025 3.854 4.025h5.647c0.698 0 1.203-0.484 1.203-1.141v-0.37c0-0.661-0.505-1.135-1.203-1.135h-4.639c-1.3 0-1.986-0.639-1.986-1.854v-2.457h8.369c1.346 0 2.142-0.821 2.142-2.212v-3.256c0-2.149-1.822-3.8944-4.054-3.894l-5.273 1e-3c-2.2401 2e-3 -4.06 1.745-4.06 3.895zm2.877 0.371c0-0.907 0.713-1.619 1.621-1.619h4.396c0.906 0 1.613 0.712 1.613 1.619v2.622h-7.631c1e-3 -0.342 1e-3 -2.622 1e-3 -2.622z"/><path d="m547 404.27c-1.573 0-2.76.564-3.718 1.021-.596.28-1.105.525-1.521.525-.183 0-.257-.023-.399-.269l-.331-.604c-.19-.382-.513-.575-.949-.575h-.465c-.562 0-.972.438-.972 1.037v14.077c0 .667.527 1.203 1.206 1.203h.465c.667 0 1.211-.542 1.211-1.203v-10.65c0-.998.815-1.818 1.813-1.818h3.999c1.001 0 1.816.82 1.816 1.818v10.65c0 .667.53 1.203 1.203 1.203h.47c.667 0 1.209-.542 1.209-1.203v-11.055c0-2.526-1.776-4.157-4.535-4.157h-.502z"/></g><g transform="matrix(1.7539 0 0 1.7539 -611.6 -134.13)"><path d="m667.46 415.23c1.218 0 2.188.99 2.188 2.229 0 1.257-.971 2.237-2.198 2.237-1.218 0-2.208-.98-2.208-2.237 0-1.238.99-2.229 2.208-2.229h.01zm-.01.346c-.98 0-1.782.842-1.782 1.882 0 1.06.802 1.891 1.792 1.891.99.011 1.782-.831 1.782-1.881s-.792-1.892-1.782-1.892h-.01zm-.416 3.179h-.396v-2.485c.208-.03.406-.06.703-.06.377 0 .624.079.772.188.149.108.229.276.229.515 0 .326-.218.524-.485.604v.021c.218.039.366.237.416.604.06.387.118.535.158.614h-.416c-.06-.079-.119-.307-.168-.634-.06-.316-.218-.436-.535-.436h-.277v1.069zm0-1.377h.287c.327 0 .604-.118.604-.426 0-.218-.158-.436-.604-.436-.129 0-.218.01-.287.021v.841z" fill="#73ba25"/></g></g></g></svg>